G04 EAGLE Gerber RS-274X export*
G75*
%MOMM*%
%FSLAX34Y34*%
%LPD*%
%INCopper Layer 15*%
%IPPOS*%
%AMOC8*
5,1,8,0,0,1.08239X$1,22.5*%
G01*
G04 Define Apertures*
%ADD10C,1.524000*%
%ADD11C,1.320800*%
%ADD12C,1.108000*%
%ADD13C,0.756400*%
%ADD14C,0.656400*%
G36*
X637121Y10190D02*
X637246Y10276D01*
X637328Y10404D01*
X637353Y10541D01*
X637581Y190121D01*
X637551Y190269D01*
X637465Y190394D01*
X637337Y190476D01*
X637200Y190502D01*
X10782Y190502D01*
X10633Y190472D01*
X10508Y190386D01*
X10426Y190258D01*
X10401Y190121D01*
X10173Y10541D01*
X10203Y10393D01*
X10289Y10268D01*
X10417Y10186D01*
X10554Y10160D01*
X636972Y10160D01*
X637121Y10190D01*
G37*
%LPC*%
G36*
X310626Y166880D02*
X307545Y168156D01*
X305187Y170514D01*
X303911Y173595D01*
X303911Y176929D01*
X305187Y180010D01*
X307545Y182368D01*
X310626Y183644D01*
X313960Y183644D01*
X317041Y182368D01*
X319399Y180010D01*
X320675Y176929D01*
X320675Y173595D01*
X319399Y170514D01*
X317041Y168156D01*
X313960Y166880D01*
X310626Y166880D01*
G37*
G36*
X285226Y166880D02*
X282145Y168156D01*
X279787Y170514D01*
X278511Y173595D01*
X278511Y176929D01*
X279787Y180010D01*
X282145Y182368D01*
X285226Y183644D01*
X288560Y183644D01*
X291641Y182368D01*
X293999Y180010D01*
X295275Y176929D01*
X295275Y173595D01*
X293999Y170514D01*
X291641Y168156D01*
X288560Y166880D01*
X285226Y166880D01*
G37*
G36*
X259826Y166880D02*
X256745Y168156D01*
X254387Y170514D01*
X253111Y173595D01*
X253111Y176929D01*
X254387Y180010D01*
X256745Y182368D01*
X259826Y183644D01*
X263160Y183644D01*
X266241Y182368D01*
X268599Y180010D01*
X269875Y176929D01*
X269875Y173595D01*
X268599Y170514D01*
X266241Y168156D01*
X263160Y166880D01*
X259826Y166880D01*
G37*
G36*
X343750Y153190D02*
X340642Y156298D01*
X340642Y160694D01*
X343750Y163802D01*
X348146Y163802D01*
X351254Y160694D01*
X351254Y156298D01*
X348146Y153190D01*
X343750Y153190D01*
G37*
G36*
X481076Y151638D02*
X481076Y152695D01*
X482468Y156056D01*
X485040Y158628D01*
X488401Y160020D01*
X489458Y160020D01*
X489458Y151638D01*
X481076Y151638D01*
G37*
G36*
X490982Y151638D02*
X490982Y160020D01*
X492039Y160020D01*
X495400Y158628D01*
X497972Y156056D01*
X499364Y152695D01*
X499364Y151638D01*
X490982Y151638D01*
G37*
G36*
X531935Y143510D02*
X529228Y144631D01*
X527155Y146704D01*
X526034Y149411D01*
X526034Y152341D01*
X527155Y155049D01*
X529228Y157121D01*
X531935Y158242D01*
X534865Y158242D01*
X537573Y157121D01*
X539645Y155049D01*
X540766Y152341D01*
X540766Y149411D01*
X539645Y146704D01*
X537573Y144631D01*
X534865Y143510D01*
X531935Y143510D01*
G37*
G36*
X510345Y143510D02*
X507638Y144631D01*
X505565Y146704D01*
X504444Y149411D01*
X504444Y152341D01*
X505565Y155049D01*
X507638Y157121D01*
X510345Y158242D01*
X513275Y158242D01*
X515983Y157121D01*
X518055Y155049D01*
X519176Y152341D01*
X519176Y149411D01*
X518055Y146704D01*
X515983Y144631D01*
X513275Y143510D01*
X510345Y143510D01*
G37*
G36*
X257644Y147475D02*
X254536Y150583D01*
X254536Y154979D01*
X257644Y158087D01*
X262040Y158087D01*
X265148Y154979D01*
X265148Y150583D01*
X262040Y147475D01*
X257644Y147475D01*
G37*
G36*
X53594Y146884D02*
X53594Y147941D01*
X54986Y151302D01*
X57558Y153874D01*
X60919Y155266D01*
X61976Y155266D01*
X61976Y146884D01*
X53594Y146884D01*
G37*
G36*
X63500Y146884D02*
X63500Y155266D01*
X64557Y155266D01*
X67918Y153874D01*
X70490Y151302D01*
X71882Y147941D01*
X71882Y146884D01*
X63500Y146884D01*
G37*
G36*
X18093Y138756D02*
X15386Y139877D01*
X13313Y141950D01*
X12192Y144657D01*
X12192Y147587D01*
X13313Y150295D01*
X15386Y152367D01*
X18093Y153488D01*
X21023Y153488D01*
X23731Y152367D01*
X25803Y150295D01*
X26924Y147587D01*
X26924Y144657D01*
X25803Y141950D01*
X23731Y139877D01*
X21023Y138756D01*
X18093Y138756D01*
G37*
G36*
X39683Y138756D02*
X36976Y139877D01*
X34903Y141950D01*
X33782Y144657D01*
X33782Y147587D01*
X34903Y150295D01*
X36976Y152367D01*
X39683Y153488D01*
X42613Y153488D01*
X45321Y152367D01*
X47393Y150295D01*
X48514Y147587D01*
X48514Y144657D01*
X47393Y141950D01*
X45321Y139877D01*
X42613Y138756D01*
X39683Y138756D01*
G37*
G36*
X490982Y141732D02*
X490982Y150114D01*
X499364Y150114D01*
X499364Y149057D01*
X497972Y145696D01*
X495400Y143124D01*
X492039Y141732D01*
X490982Y141732D01*
G37*
G36*
X488401Y141732D02*
X485040Y143124D01*
X482468Y145696D01*
X481076Y149057D01*
X481076Y150114D01*
X489458Y150114D01*
X489458Y141732D01*
X488401Y141732D01*
G37*
G36*
X63500Y136978D02*
X63500Y145360D01*
X71882Y145360D01*
X71882Y144303D01*
X70490Y140942D01*
X67918Y138370D01*
X64557Y136978D01*
X63500Y136978D01*
G37*
G36*
X60919Y136978D02*
X57558Y138370D01*
X54986Y140942D01*
X53594Y144303D01*
X53594Y145360D01*
X61976Y145360D01*
X61976Y136978D01*
X60919Y136978D01*
G37*
G36*
X509612Y126520D02*
X506504Y129628D01*
X506504Y134024D01*
X509612Y137132D01*
X514008Y137132D01*
X517116Y134024D01*
X517116Y129628D01*
X514008Y126520D01*
X509612Y126520D01*
G37*
G36*
X49110Y126012D02*
X46002Y129120D01*
X46002Y133516D01*
X49110Y136624D01*
X53506Y136624D01*
X56614Y133516D01*
X56614Y129120D01*
X53506Y126012D01*
X49110Y126012D01*
G37*
G36*
X208622Y124742D02*
X205514Y127850D01*
X205514Y132246D01*
X208622Y135354D01*
X213018Y135354D01*
X216126Y132246D01*
X216126Y127850D01*
X213018Y124742D01*
X208622Y124742D01*
G37*
G36*
X407938Y120696D02*
X405622Y121655D01*
X403849Y123428D01*
X402890Y125744D01*
X402890Y128252D01*
X403849Y130568D01*
X405622Y132341D01*
X407938Y133300D01*
X410446Y133300D01*
X412762Y132341D01*
X414535Y130568D01*
X415494Y128252D01*
X415494Y125744D01*
X414535Y123428D01*
X412762Y121655D01*
X410446Y120696D01*
X407938Y120696D01*
G37*
G36*
X391938Y120696D02*
X389622Y121655D01*
X387849Y123428D01*
X386890Y125744D01*
X386890Y128252D01*
X387849Y130568D01*
X389622Y132341D01*
X391938Y133300D01*
X394446Y133300D01*
X396762Y132341D01*
X398535Y130568D01*
X399494Y128252D01*
X399494Y125744D01*
X398535Y123428D01*
X396762Y121655D01*
X394446Y120696D01*
X391938Y120696D01*
G37*
G36*
X375938Y120696D02*
X373622Y121655D01*
X371849Y123428D01*
X370890Y125744D01*
X370890Y128252D01*
X371849Y130568D01*
X373622Y132341D01*
X375938Y133300D01*
X378446Y133300D01*
X380762Y132341D01*
X382535Y130568D01*
X383494Y128252D01*
X383494Y125744D01*
X382535Y123428D01*
X380762Y121655D01*
X378446Y120696D01*
X375938Y120696D01*
G37*
G36*
X531456Y120424D02*
X528348Y123532D01*
X528348Y127928D01*
X531456Y131036D01*
X535852Y131036D01*
X538960Y127928D01*
X538960Y123532D01*
X535852Y120424D01*
X531456Y120424D01*
G37*
G36*
X327240Y113820D02*
X324132Y116928D01*
X324132Y121324D01*
X327240Y124432D01*
X331636Y124432D01*
X334744Y121324D01*
X334744Y116928D01*
X331636Y113820D01*
X327240Y113820D01*
G37*
G36*
X391938Y104696D02*
X389622Y105655D01*
X387849Y107428D01*
X386890Y109744D01*
X386890Y112252D01*
X387849Y114568D01*
X389622Y116341D01*
X391938Y117300D01*
X394446Y117300D01*
X396762Y116341D01*
X398535Y114568D01*
X399494Y112252D01*
X399494Y109744D01*
X398535Y107428D01*
X396762Y105655D01*
X394446Y104696D01*
X391938Y104696D01*
G37*
G36*
X375938Y104696D02*
X373622Y105655D01*
X371849Y107428D01*
X370890Y109744D01*
X370890Y112252D01*
X371849Y114568D01*
X373622Y116341D01*
X375938Y117300D01*
X378446Y117300D01*
X380762Y116341D01*
X382535Y114568D01*
X383494Y112252D01*
X383494Y109744D01*
X382535Y107428D01*
X380762Y105655D01*
X378446Y104696D01*
X375938Y104696D01*
G37*
G36*
X407938Y104696D02*
X405622Y105655D01*
X403849Y107428D01*
X402890Y109744D01*
X402890Y112252D01*
X403849Y114568D01*
X405622Y116341D01*
X407938Y117300D01*
X410446Y117300D01*
X412762Y116341D01*
X414535Y114568D01*
X415494Y112252D01*
X415494Y109744D01*
X414535Y107428D01*
X412762Y105655D01*
X410446Y104696D01*
X407938Y104696D01*
G37*
G36*
X39712Y102898D02*
X36604Y106006D01*
X36604Y110402D01*
X39712Y113510D01*
X44108Y113510D01*
X47216Y110402D01*
X47216Y106006D01*
X44108Y102898D01*
X39712Y102898D01*
G37*
G36*
X407938Y88696D02*
X405622Y89655D01*
X403849Y91428D01*
X402890Y93744D01*
X402890Y96252D01*
X403849Y98568D01*
X405622Y100341D01*
X407938Y101300D01*
X410446Y101300D01*
X412762Y100341D01*
X414535Y98568D01*
X415494Y96252D01*
X415494Y93744D01*
X414535Y91428D01*
X412762Y89655D01*
X410446Y88696D01*
X407938Y88696D01*
G37*
G36*
X391938Y88696D02*
X389622Y89655D01*
X387849Y91428D01*
X386890Y93744D01*
X386890Y96252D01*
X387849Y98568D01*
X389622Y100341D01*
X391938Y101300D01*
X394446Y101300D01*
X396762Y100341D01*
X398535Y98568D01*
X399494Y96252D01*
X399494Y93744D01*
X398535Y91428D01*
X396762Y89655D01*
X394446Y88696D01*
X391938Y88696D01*
G37*
G36*
X375938Y88696D02*
X373622Y89655D01*
X371849Y91428D01*
X370890Y93744D01*
X370890Y96252D01*
X371849Y98568D01*
X373622Y100341D01*
X375938Y101300D01*
X378446Y101300D01*
X380762Y100341D01*
X382535Y98568D01*
X383494Y96252D01*
X383494Y93744D01*
X382535Y91428D01*
X380762Y89655D01*
X378446Y88696D01*
X375938Y88696D01*
G37*
G36*
X284822Y85880D02*
X281714Y88988D01*
X281714Y93384D01*
X284822Y96492D01*
X289218Y96492D01*
X292326Y93384D01*
X292326Y88988D01*
X289218Y85880D01*
X284822Y85880D01*
G37*
G36*
X304126Y76990D02*
X301018Y80098D01*
X301018Y84494D01*
X304126Y87602D01*
X308522Y87602D01*
X311630Y84494D01*
X311630Y80098D01*
X308522Y76990D01*
X304126Y76990D01*
G37*
G36*
X314489Y70183D02*
X311381Y73291D01*
X311381Y77687D01*
X314489Y80795D01*
X318885Y80795D01*
X321993Y77687D01*
X321993Y73291D01*
X318885Y70183D01*
X314489Y70183D01*
G37*
G36*
X198208Y65306D02*
X195100Y68414D01*
X195100Y72810D01*
X198208Y75918D01*
X202604Y75918D01*
X205712Y72810D01*
X205712Y68414D01*
X202604Y65306D01*
X198208Y65306D01*
G37*
G36*
X307428Y60734D02*
X304320Y63842D01*
X304320Y68238D01*
X307428Y71346D01*
X311824Y71346D01*
X314932Y68238D01*
X314932Y63842D01*
X311824Y60734D01*
X307428Y60734D01*
G37*
G36*
X189064Y44478D02*
X185956Y47586D01*
X185956Y51982D01*
X189064Y55090D01*
X193460Y55090D01*
X196568Y51982D01*
X196568Y47586D01*
X193460Y44478D01*
X189064Y44478D01*
G37*
G36*
X331558Y30508D02*
X328450Y33616D01*
X328450Y38012D01*
X331558Y41120D01*
X335954Y41120D01*
X339062Y38012D01*
X339062Y33616D01*
X335954Y30508D01*
X331558Y30508D01*
G37*
G36*
X381088Y27714D02*
X377980Y30822D01*
X377980Y35218D01*
X381088Y38326D01*
X385484Y38326D01*
X388592Y35218D01*
X388592Y30822D01*
X385484Y27714D01*
X381088Y27714D01*
G37*
G36*
X421386Y28702D02*
X421386Y29961D01*
X422933Y33695D01*
X425791Y36553D01*
X429525Y38100D01*
X430784Y38100D01*
X430784Y28702D01*
X421386Y28702D01*
G37*
G36*
X432308Y28702D02*
X432308Y38100D01*
X433567Y38100D01*
X437301Y36553D01*
X440159Y33695D01*
X441706Y29961D01*
X441706Y28702D01*
X432308Y28702D01*
G37*
G36*
X404479Y19558D02*
X401398Y20834D01*
X399040Y23192D01*
X397764Y26273D01*
X397764Y29607D01*
X399040Y32688D01*
X401398Y35046D01*
X404479Y36322D01*
X407813Y36322D01*
X410894Y35046D01*
X413252Y32688D01*
X414528Y29607D01*
X414528Y26273D01*
X413252Y23192D01*
X410894Y20834D01*
X407813Y19558D01*
X404479Y19558D01*
G37*
G36*
X21447Y17018D02*
X18366Y18294D01*
X16008Y20652D01*
X14732Y23733D01*
X14732Y27067D01*
X16008Y30148D01*
X18366Y32506D01*
X21447Y33782D01*
X24781Y33782D01*
X27862Y32506D01*
X30220Y30148D01*
X31496Y27067D01*
X31496Y23733D01*
X30220Y20652D01*
X27862Y18294D01*
X24781Y17018D01*
X21447Y17018D01*
G37*
G36*
X432308Y17780D02*
X432308Y27178D01*
X441706Y27178D01*
X441706Y25919D01*
X440159Y22185D01*
X437301Y19327D01*
X433567Y17780D01*
X432308Y17780D01*
G37*
G36*
X429525Y17780D02*
X425791Y19327D01*
X422933Y22185D01*
X421386Y25919D01*
X421386Y27178D01*
X430784Y27178D01*
X430784Y17780D01*
X429525Y17780D01*
G37*
%LPD*%
D10*
X406146Y27940D03*
X431546Y27940D03*
X261493Y175262D03*
X286893Y175262D03*
X312293Y175262D03*
X23114Y25400D03*
D11*
X490220Y150876D03*
X511810Y150876D03*
X533400Y150876D03*
X62738Y146122D03*
X41148Y146122D03*
X19558Y146122D03*
D12*
X393192Y110998D03*
X377192Y126998D03*
X409192Y126998D03*
X409192Y94998D03*
X377192Y94998D03*
X393192Y94998D03*
X409192Y110998D03*
X393192Y126998D03*
X377192Y110998D03*
D13*
X227076Y167767D03*
X287020Y103322D03*
X216408Y38862D03*
X287020Y118364D03*
X324358Y141478D03*
X193802Y132080D03*
D14*
X213106Y93218D03*
X208534Y26289D03*
D13*
X284226Y18796D03*
X254508Y19812D03*
X533654Y125730D03*
X383286Y33020D03*
X306324Y82296D03*
X511810Y131826D03*
X41910Y108204D03*
X200406Y70612D03*
X191262Y49784D03*
X345948Y158496D03*
X210820Y130048D03*
X333756Y35814D03*
X316687Y75489D03*
X329438Y119126D03*
X51308Y131318D03*
X287020Y91186D03*
X309626Y66040D03*
X259842Y152781D03*
M02*
