G04 EAGLE Gerber RS-274X export*
G75*
%MOMM*%
%FSLAX34Y34*%
%LPD*%
%INCopper Layer 2*%
%IPPOS*%
%AMOC8*
5,1,8,0,0,1.08239X$1,22.5*%
G01*
G04 Define Apertures*
%ADD10C,1.524000*%
%ADD11C,1.320800*%
%ADD12C,1.108000*%
%ADD13C,0.756400*%
%ADD14C,0.656400*%
G36*
X637121Y10190D02*
X637246Y10276D01*
X637328Y10404D01*
X637353Y10541D01*
X637581Y190121D01*
X637551Y190269D01*
X637465Y190394D01*
X637337Y190476D01*
X637200Y190502D01*
X10782Y190502D01*
X10633Y190472D01*
X10508Y190386D01*
X10426Y190258D01*
X10401Y190121D01*
X10173Y10541D01*
X10203Y10393D01*
X10289Y10268D01*
X10417Y10186D01*
X10554Y10160D01*
X636972Y10160D01*
X637121Y10190D01*
G37*
%LPC*%
G36*
X310626Y166880D02*
X307545Y168156D01*
X305187Y170514D01*
X303911Y173595D01*
X303911Y176929D01*
X305187Y180010D01*
X307545Y182368D01*
X310626Y183644D01*
X313960Y183644D01*
X317041Y182368D01*
X319399Y180010D01*
X320675Y176929D01*
X320675Y173595D01*
X319399Y170514D01*
X317041Y168156D01*
X313960Y166880D01*
X310626Y166880D01*
G37*
G36*
X285226Y166880D02*
X282145Y168156D01*
X279787Y170514D01*
X278511Y173595D01*
X278511Y176929D01*
X279787Y180010D01*
X282145Y182368D01*
X285226Y183644D01*
X288560Y183644D01*
X291641Y182368D01*
X293999Y180010D01*
X295275Y176929D01*
X295275Y173595D01*
X293999Y170514D01*
X291641Y168156D01*
X288560Y166880D01*
X285226Y166880D01*
G37*
G36*
X259826Y166880D02*
X256745Y168156D01*
X254387Y170514D01*
X253111Y173595D01*
X253111Y176929D01*
X254387Y180010D01*
X256745Y182368D01*
X259826Y183644D01*
X263160Y183644D01*
X266241Y182368D01*
X268599Y180010D01*
X269875Y176929D01*
X269875Y173595D01*
X268599Y170514D01*
X266241Y168156D01*
X263160Y166880D01*
X259826Y166880D01*
G37*
G36*
X224878Y162461D02*
X221770Y165569D01*
X221770Y169965D01*
X224878Y173073D01*
X229274Y173073D01*
X232382Y169965D01*
X232382Y165569D01*
X229274Y162461D01*
X224878Y162461D01*
G37*
G36*
X343750Y153190D02*
X340642Y156298D01*
X340642Y160694D01*
X343750Y163802D01*
X348146Y163802D01*
X351254Y160694D01*
X351254Y156298D01*
X348146Y153190D01*
X343750Y153190D01*
G37*
G36*
X531935Y143510D02*
X529228Y144631D01*
X527155Y146704D01*
X526034Y149411D01*
X526034Y152341D01*
X527155Y155049D01*
X529228Y157121D01*
X531935Y158242D01*
X534865Y158242D01*
X537573Y157121D01*
X539645Y155049D01*
X540766Y152341D01*
X540766Y149411D01*
X539645Y146704D01*
X537573Y144631D01*
X534865Y143510D01*
X531935Y143510D01*
G37*
G36*
X510345Y143510D02*
X507638Y144631D01*
X505565Y146704D01*
X504444Y149411D01*
X504444Y152341D01*
X505565Y155049D01*
X507638Y157121D01*
X510345Y158242D01*
X513275Y158242D01*
X515983Y157121D01*
X518055Y155049D01*
X519176Y152341D01*
X519176Y149411D01*
X518055Y146704D01*
X515983Y144631D01*
X513275Y143510D01*
X510345Y143510D01*
G37*
G36*
X488755Y143510D02*
X486048Y144631D01*
X483975Y146704D01*
X482854Y149411D01*
X482854Y152341D01*
X483975Y155049D01*
X486048Y157121D01*
X488755Y158242D01*
X491685Y158242D01*
X494393Y157121D01*
X496465Y155049D01*
X497586Y152341D01*
X497586Y149411D01*
X496465Y146704D01*
X494393Y144631D01*
X491685Y143510D01*
X488755Y143510D01*
G37*
G36*
X257644Y147475D02*
X254536Y150583D01*
X254536Y154979D01*
X257644Y158087D01*
X262040Y158087D01*
X265148Y154979D01*
X265148Y150583D01*
X262040Y147475D01*
X257644Y147475D01*
G37*
G36*
X61273Y138756D02*
X58566Y139877D01*
X56493Y141950D01*
X55372Y144657D01*
X55372Y147587D01*
X56493Y150295D01*
X58566Y152367D01*
X61273Y153488D01*
X64203Y153488D01*
X66911Y152367D01*
X68983Y150295D01*
X70104Y147587D01*
X70104Y144657D01*
X68983Y141950D01*
X66911Y139877D01*
X64203Y138756D01*
X61273Y138756D01*
G37*
G36*
X39683Y138756D02*
X36976Y139877D01*
X34903Y141950D01*
X33782Y144657D01*
X33782Y147587D01*
X34903Y150295D01*
X36976Y152367D01*
X39683Y153488D01*
X42613Y153488D01*
X45321Y152367D01*
X47393Y150295D01*
X48514Y147587D01*
X48514Y144657D01*
X47393Y141950D01*
X45321Y139877D01*
X42613Y138756D01*
X39683Y138756D01*
G37*
G36*
X18093Y138756D02*
X15386Y139877D01*
X13313Y141950D01*
X12192Y144657D01*
X12192Y147587D01*
X13313Y150295D01*
X15386Y152367D01*
X18093Y153488D01*
X21023Y153488D01*
X23731Y152367D01*
X25803Y150295D01*
X26924Y147587D01*
X26924Y144657D01*
X25803Y141950D01*
X23731Y139877D01*
X21023Y138756D01*
X18093Y138756D01*
G37*
G36*
X322160Y136172D02*
X319052Y139280D01*
X319052Y143676D01*
X322160Y146784D01*
X326556Y146784D01*
X329664Y143676D01*
X329664Y139280D01*
X326556Y136172D01*
X322160Y136172D01*
G37*
G36*
X191604Y126774D02*
X188496Y129882D01*
X188496Y134278D01*
X191604Y137386D01*
X196000Y137386D01*
X199108Y134278D01*
X199108Y129882D01*
X196000Y126774D01*
X191604Y126774D01*
G37*
G36*
X509612Y126520D02*
X506504Y129628D01*
X506504Y134024D01*
X509612Y137132D01*
X514008Y137132D01*
X517116Y134024D01*
X517116Y129628D01*
X514008Y126520D01*
X509612Y126520D01*
G37*
G36*
X49110Y126012D02*
X46002Y129120D01*
X46002Y133516D01*
X49110Y136624D01*
X53506Y136624D01*
X56614Y133516D01*
X56614Y129120D01*
X53506Y126012D01*
X49110Y126012D01*
G37*
G36*
X208622Y124742D02*
X205514Y127850D01*
X205514Y132246D01*
X208622Y135354D01*
X213018Y135354D01*
X216126Y132246D01*
X216126Y127850D01*
X213018Y124742D01*
X208622Y124742D01*
G37*
G36*
X531456Y120424D02*
X528348Y123532D01*
X528348Y127928D01*
X531456Y131036D01*
X535852Y131036D01*
X538960Y127928D01*
X538960Y123532D01*
X535852Y120424D01*
X531456Y120424D01*
G37*
G36*
X327240Y113820D02*
X324132Y116928D01*
X324132Y121324D01*
X327240Y124432D01*
X331636Y124432D01*
X334744Y121324D01*
X334744Y116928D01*
X331636Y113820D01*
X327240Y113820D01*
G37*
G36*
X284822Y113058D02*
X281714Y116166D01*
X281714Y120562D01*
X284822Y123670D01*
X289218Y123670D01*
X292326Y120562D01*
X292326Y116166D01*
X289218Y113058D01*
X284822Y113058D01*
G37*
G36*
X39712Y102898D02*
X36604Y106006D01*
X36604Y110402D01*
X39712Y113510D01*
X44108Y113510D01*
X47216Y110402D01*
X47216Y106006D01*
X44108Y102898D01*
X39712Y102898D01*
G37*
G36*
X284822Y98016D02*
X281714Y101124D01*
X281714Y105520D01*
X284822Y108628D01*
X289218Y108628D01*
X292326Y105520D01*
X292326Y101124D01*
X289218Y98016D01*
X284822Y98016D01*
G37*
G36*
X211115Y88412D02*
X208300Y91227D01*
X208300Y95209D01*
X211115Y98024D01*
X215097Y98024D01*
X217912Y95209D01*
X217912Y91227D01*
X215097Y88412D01*
X211115Y88412D01*
G37*
G36*
X284822Y85880D02*
X281714Y88988D01*
X281714Y93384D01*
X284822Y96492D01*
X289218Y96492D01*
X292326Y93384D01*
X292326Y88988D01*
X289218Y85880D01*
X284822Y85880D01*
G37*
G36*
X304126Y76990D02*
X301018Y80098D01*
X301018Y84494D01*
X304126Y87602D01*
X308522Y87602D01*
X311630Y84494D01*
X311630Y80098D01*
X308522Y76990D01*
X304126Y76990D01*
G37*
G36*
X314489Y70183D02*
X311381Y73291D01*
X311381Y77687D01*
X314489Y80795D01*
X318885Y80795D01*
X321993Y77687D01*
X321993Y73291D01*
X318885Y70183D01*
X314489Y70183D01*
G37*
G36*
X198208Y65306D02*
X195100Y68414D01*
X195100Y72810D01*
X198208Y75918D01*
X202604Y75918D01*
X205712Y72810D01*
X205712Y68414D01*
X202604Y65306D01*
X198208Y65306D01*
G37*
G36*
X307428Y60734D02*
X304320Y63842D01*
X304320Y68238D01*
X307428Y71346D01*
X311824Y71346D01*
X314932Y68238D01*
X314932Y63842D01*
X311824Y60734D01*
X307428Y60734D01*
G37*
G36*
X189064Y44478D02*
X185956Y47586D01*
X185956Y51982D01*
X189064Y55090D01*
X193460Y55090D01*
X196568Y51982D01*
X196568Y47586D01*
X193460Y44478D01*
X189064Y44478D01*
G37*
G36*
X214210Y33556D02*
X211102Y36664D01*
X211102Y41060D01*
X214210Y44168D01*
X218606Y44168D01*
X221714Y41060D01*
X221714Y36664D01*
X218606Y33556D01*
X214210Y33556D01*
G37*
G36*
X331558Y30508D02*
X328450Y33616D01*
X328450Y38012D01*
X331558Y41120D01*
X335954Y41120D01*
X339062Y38012D01*
X339062Y33616D01*
X335954Y30508D01*
X331558Y30508D01*
G37*
G36*
X381088Y27714D02*
X377980Y30822D01*
X377980Y35218D01*
X381088Y38326D01*
X385484Y38326D01*
X388592Y35218D01*
X388592Y30822D01*
X385484Y27714D01*
X381088Y27714D01*
G37*
G36*
X395986Y28702D02*
X395986Y29961D01*
X397533Y33695D01*
X400391Y36553D01*
X404125Y38100D01*
X405384Y38100D01*
X405384Y28702D01*
X395986Y28702D01*
G37*
G36*
X406908Y28702D02*
X406908Y38100D01*
X408167Y38100D01*
X411901Y36553D01*
X414759Y33695D01*
X416306Y29961D01*
X416306Y28702D01*
X406908Y28702D01*
G37*
G36*
X429879Y19558D02*
X426798Y20834D01*
X424440Y23192D01*
X423164Y26273D01*
X423164Y29607D01*
X424440Y32688D01*
X426798Y35046D01*
X429879Y36322D01*
X433213Y36322D01*
X436294Y35046D01*
X438652Y32688D01*
X439928Y29607D01*
X439928Y26273D01*
X438652Y23192D01*
X436294Y20834D01*
X433213Y19558D01*
X429879Y19558D01*
G37*
G36*
X21447Y17018D02*
X18366Y18294D01*
X16008Y20652D01*
X14732Y23733D01*
X14732Y27067D01*
X16008Y30148D01*
X18366Y32506D01*
X21447Y33782D01*
X24781Y33782D01*
X27862Y32506D01*
X30220Y30148D01*
X31496Y27067D01*
X31496Y23733D01*
X30220Y20652D01*
X27862Y18294D01*
X24781Y17018D01*
X21447Y17018D01*
G37*
G36*
X206543Y21483D02*
X203728Y24298D01*
X203728Y28280D01*
X206543Y31095D01*
X210525Y31095D01*
X213340Y28280D01*
X213340Y24298D01*
X210525Y21483D01*
X206543Y21483D01*
G37*
G36*
X406908Y17780D02*
X406908Y27178D01*
X416306Y27178D01*
X416306Y25919D01*
X414759Y22185D01*
X411901Y19327D01*
X408167Y17780D01*
X406908Y17780D01*
G37*
G36*
X404125Y17780D02*
X400391Y19327D01*
X397533Y22185D01*
X395986Y25919D01*
X395986Y27178D01*
X405384Y27178D01*
X405384Y17780D01*
X404125Y17780D01*
G37*
G36*
X252310Y14506D02*
X249202Y17614D01*
X249202Y22010D01*
X252310Y25118D01*
X256706Y25118D01*
X259814Y22010D01*
X259814Y17614D01*
X256706Y14506D01*
X252310Y14506D01*
G37*
G36*
X282028Y13490D02*
X278920Y16598D01*
X278920Y20994D01*
X282028Y24102D01*
X286424Y24102D01*
X289532Y20994D01*
X289532Y16598D01*
X286424Y13490D01*
X282028Y13490D01*
G37*
%LPD*%
D10*
X406146Y27940D03*
X431546Y27940D03*
X261493Y175262D03*
X286893Y175262D03*
X312293Y175262D03*
X23114Y25400D03*
D11*
X490220Y150876D03*
X511810Y150876D03*
X533400Y150876D03*
X62738Y146122D03*
X41148Y146122D03*
X19558Y146122D03*
D12*
X393192Y110998D03*
X377192Y126998D03*
X409192Y126998D03*
X409192Y94998D03*
X377192Y94998D03*
X393192Y94998D03*
X409192Y110998D03*
X393192Y126998D03*
X377192Y110998D03*
D13*
X98362Y21114D03*
X469138Y89980D03*
X485140Y89980D03*
X500507Y93218D03*
X520319Y23114D03*
X535178Y90805D03*
X553974Y90805D03*
X582930Y90805D03*
X623443Y23114D03*
X623443Y179959D03*
X582422Y124206D03*
X566166Y124206D03*
X549910Y124206D03*
X500507Y121158D03*
X485140Y125794D03*
X469138Y125794D03*
X449453Y179959D03*
X336296Y179959D03*
X299720Y160909D03*
X210820Y179959D03*
X462153Y23114D03*
X148844Y21114D03*
X149437Y179959D03*
X87291Y179959D03*
X25146Y179959D03*
X98298Y131064D03*
X136652Y131064D03*
X163576Y120015D03*
X100711Y101473D03*
X93694Y48387D03*
X39624Y69596D03*
X39624Y53763D03*
X47879Y37931D03*
X47879Y21114D03*
X273812Y45720D03*
X332740Y20447D03*
X210820Y143637D03*
X450977Y125794D03*
X450977Y89980D03*
X391033Y52451D03*
X186944Y98679D03*
X205994Y86360D03*
X210566Y15669D03*
X259334Y138938D03*
X293370Y63246D03*
X179126Y45847D03*
X148336Y120015D03*
X161290Y98679D03*
X126492Y101473D03*
X113602Y101473D03*
X87821Y101473D03*
X74930Y101473D03*
X104394Y75692D03*
X93694Y61087D03*
X121412Y61087D03*
X121412Y48387D03*
X146050Y75946D03*
X80772Y131064D03*
X30480Y131318D03*
X167640Y63754D03*
X227076Y167767D03*
X287020Y103322D03*
X216408Y38862D03*
X287020Y118364D03*
X324358Y141478D03*
X193802Y132080D03*
D14*
X213106Y93218D03*
X208534Y26289D03*
D13*
X284226Y18796D03*
X254508Y19812D03*
X533654Y125730D03*
X383286Y33020D03*
X306324Y82296D03*
X511810Y131826D03*
X41910Y108204D03*
X200406Y70612D03*
X191262Y49784D03*
X345948Y158496D03*
X210820Y130048D03*
X333756Y35814D03*
X316687Y75489D03*
X329438Y119126D03*
X51308Y131318D03*
X287020Y91186D03*
X309626Y66040D03*
X259842Y152781D03*
M02*
