G04 EAGLE Gerber RS-274X export*
G75*
%MOMM*%
%FSLAX34Y34*%
%LPD*%
%INTop Copper*%
%IPPOS*%
%AMOC8*
5,1,8,0,0,1.08239X$1,22.5*%
G01*
G04 Define Apertures*
%ADD10R,0.900000X0.700000*%
%ADD11R,0.700000X0.900000*%
%ADD12R,0.300000X0.375000*%
%ADD13C,1.524000*%
%ADD14P,1.649562X8X22.500000*%
%ADD15R,0.250000X0.350000*%
%ADD16R,0.350000X0.250000*%
%ADD17P,1.814519X8X22.500000*%
%ADD18P,1.814519X8X202.500000*%
%ADD19R,0.762000X0.762000*%
%ADD20R,1.016000X0.635000*%
%ADD21R,0.635000X1.016000*%
%ADD22R,4.724000X4.724000*%
%ADD23R,1.060000X1.360000*%
%ADD24R,1.360000X1.060000*%
%ADD25R,1.485000X1.110000*%
%ADD26C,1.108000*%
%ADD27R,0.440000X0.200000*%
%ADD28R,0.200000X0.440000*%
%ADD29R,0.760000X0.760000*%
%ADD30C,0.400000*%
%ADD31R,3.800000X1.500000*%
%ADD32R,0.750000X1.350000*%
%ADD33C,0.152400*%
%ADD34C,0.076200*%
%ADD35C,0.756400*%
%ADD36C,0.203200*%
%ADD37C,0.355600*%
%ADD38C,0.656400*%
G36*
X402358Y10190D02*
X402483Y10276D01*
X402565Y10404D01*
X402590Y10553D01*
X402556Y10701D01*
X402466Y10823D01*
X402355Y10893D01*
X400391Y11707D01*
X397533Y14565D01*
X395986Y18299D01*
X395986Y27178D01*
X416306Y27178D01*
X416306Y18299D01*
X414759Y14565D01*
X411901Y11707D01*
X409937Y10893D01*
X409811Y10808D01*
X409728Y10681D01*
X409701Y10532D01*
X409735Y10384D01*
X409824Y10261D01*
X409954Y10182D01*
X410082Y10160D01*
X427610Y10160D01*
X427758Y10190D01*
X427883Y10276D01*
X427965Y10404D01*
X427990Y10553D01*
X427956Y10701D01*
X427866Y10823D01*
X427755Y10893D01*
X425791Y11707D01*
X422933Y14565D01*
X421386Y18299D01*
X421386Y37581D01*
X422933Y41315D01*
X425791Y44173D01*
X429525Y45720D01*
X433567Y45720D01*
X437301Y44173D01*
X440159Y41315D01*
X441706Y37581D01*
X441706Y18299D01*
X440159Y14565D01*
X437301Y11707D01*
X435337Y10893D01*
X435211Y10808D01*
X435128Y10681D01*
X435101Y10532D01*
X435135Y10384D01*
X435224Y10261D01*
X435354Y10182D01*
X435482Y10160D01*
X636972Y10160D01*
X637121Y10190D01*
X637246Y10276D01*
X637328Y10404D01*
X637353Y10541D01*
X637581Y190121D01*
X637551Y190269D01*
X637465Y190394D01*
X637337Y190476D01*
X637200Y190502D01*
X319961Y190502D01*
X319813Y190472D01*
X319688Y190386D01*
X319606Y190258D01*
X319580Y190109D01*
X319615Y189961D01*
X319692Y189852D01*
X320906Y188637D01*
X322453Y184903D01*
X322453Y169930D01*
X322483Y169781D01*
X322565Y169660D01*
X339598Y152627D01*
X339598Y139348D01*
X318614Y118364D01*
X311660Y118364D01*
X311511Y118334D01*
X311390Y118252D01*
X307950Y114812D01*
X307866Y114686D01*
X307839Y114537D01*
X307871Y114389D01*
X307959Y114265D01*
X308088Y114185D01*
X308220Y114162D01*
X319352Y114162D01*
X320840Y112674D01*
X320840Y111805D01*
X320870Y111656D01*
X320956Y111531D01*
X321084Y111450D01*
X321221Y111424D01*
X326234Y111424D01*
X328168Y109490D01*
X328168Y63148D01*
X321930Y56910D01*
X321846Y56783D01*
X321818Y56640D01*
X321818Y54831D01*
X321848Y54682D01*
X321934Y54557D01*
X322062Y54476D01*
X322199Y54450D01*
X324068Y54450D01*
X325556Y52962D01*
X325556Y43858D01*
X324068Y42370D01*
X312964Y42370D01*
X311465Y43869D01*
X311446Y43964D01*
X311360Y44089D01*
X311232Y44170D01*
X311095Y44196D01*
X310443Y44196D01*
X310294Y44166D01*
X310169Y44080D01*
X310088Y43952D01*
X310072Y43868D01*
X308574Y42370D01*
X297470Y42370D01*
X295982Y43858D01*
X295982Y44424D01*
X295952Y44573D01*
X295866Y44698D01*
X295738Y44779D01*
X295601Y44805D01*
X295408Y44805D01*
X275382Y64831D01*
X275256Y64915D01*
X275107Y64943D01*
X274959Y64910D01*
X274844Y64831D01*
X274602Y64589D01*
X274518Y64463D01*
X274490Y64314D01*
X274523Y64166D01*
X274602Y64051D01*
X275702Y62951D01*
X275702Y62120D01*
X275732Y61971D01*
X275814Y61850D01*
X293116Y44548D01*
X293116Y43244D01*
X293146Y43096D01*
X293228Y42975D01*
X294132Y42071D01*
X294132Y30752D01*
X294162Y30604D01*
X294244Y30483D01*
X298779Y25948D01*
X298905Y25864D01*
X299048Y25836D01*
X304376Y25836D01*
X305864Y24348D01*
X305864Y13244D01*
X304376Y11756D01*
X295272Y11756D01*
X293784Y13244D01*
X293784Y14097D01*
X293754Y14246D01*
X293668Y14371D01*
X293540Y14452D01*
X293403Y14478D01*
X289006Y14478D01*
X288858Y14448D01*
X288737Y14366D01*
X287807Y13436D01*
X285484Y12474D01*
X282969Y12474D01*
X280645Y13436D01*
X278866Y15215D01*
X277904Y17539D01*
X277904Y20054D01*
X278866Y22377D01*
X280645Y24156D01*
X282969Y25118D01*
X285484Y25118D01*
X286978Y24499D01*
X287127Y24470D01*
X287275Y24501D01*
X287399Y24588D01*
X287480Y24717D01*
X287504Y24866D01*
X287468Y25014D01*
X287393Y25120D01*
X285496Y27017D01*
X285496Y42071D01*
X285605Y42180D01*
X285689Y42306D01*
X285717Y42455D01*
X285684Y42604D01*
X285605Y42719D01*
X271906Y56418D01*
X271779Y56502D01*
X271636Y56530D01*
X269281Y56530D01*
X268181Y57630D01*
X268055Y57714D01*
X267906Y57742D01*
X267758Y57709D01*
X267643Y57630D01*
X266543Y56530D01*
X262781Y56530D01*
X261681Y57630D01*
X261555Y57714D01*
X261406Y57742D01*
X261258Y57709D01*
X261143Y57630D01*
X260043Y56530D01*
X256281Y56530D01*
X255181Y57630D01*
X255055Y57714D01*
X254906Y57742D01*
X254758Y57709D01*
X254643Y57630D01*
X253543Y56530D01*
X252424Y56530D01*
X252424Y61832D01*
X250900Y61832D01*
X250900Y56530D01*
X249781Y56530D01*
X249114Y57197D01*
X248988Y57281D01*
X248839Y57309D01*
X248691Y57276D01*
X248567Y57188D01*
X248487Y57059D01*
X248464Y56928D01*
X248464Y53903D01*
X248494Y53754D01*
X248580Y53629D01*
X248708Y53548D01*
X248845Y53522D01*
X250782Y53522D01*
X252270Y52034D01*
X252270Y40930D01*
X250782Y39442D01*
X241678Y39442D01*
X240190Y40930D01*
X240190Y51358D01*
X240160Y51506D01*
X240074Y51631D01*
X239946Y51713D01*
X239797Y51739D01*
X239649Y51704D01*
X239540Y51627D01*
X232522Y44609D01*
X232438Y44483D01*
X232410Y44340D01*
X232410Y38575D01*
X232440Y38426D01*
X232526Y38301D01*
X232654Y38220D01*
X232791Y38194D01*
X233710Y38194D01*
X234841Y37064D01*
X234967Y36980D01*
X235116Y36952D01*
X235264Y36985D01*
X235379Y37064D01*
X236510Y38194D01*
X247614Y38194D01*
X249194Y36614D01*
X249218Y36579D01*
X249346Y36498D01*
X249483Y36472D01*
X259721Y36472D01*
X259870Y36502D01*
X259995Y36588D01*
X260076Y36716D01*
X260102Y36853D01*
X260102Y36960D01*
X261590Y38448D01*
X272694Y38448D01*
X274182Y36960D01*
X274182Y27856D01*
X272694Y26368D01*
X261590Y26368D01*
X260234Y27724D01*
X260107Y27808D01*
X259964Y27836D01*
X259207Y27836D01*
X259058Y27806D01*
X258933Y27720D01*
X258852Y27592D01*
X258826Y27455D01*
X258826Y24592D01*
X258856Y24444D01*
X258938Y24323D01*
X259452Y23809D01*
X259578Y23725D01*
X259727Y23698D01*
X259875Y23730D01*
X259999Y23818D01*
X260062Y23920D01*
X261590Y25448D01*
X266380Y25448D01*
X266380Y13368D01*
X261590Y13368D01*
X260102Y14856D01*
X260102Y15546D01*
X260072Y15694D01*
X259986Y15819D01*
X259858Y15901D01*
X259709Y15926D01*
X259561Y15891D01*
X259452Y15815D01*
X258089Y14452D01*
X255766Y13490D01*
X253251Y13490D01*
X250927Y14452D01*
X249752Y15627D01*
X249626Y15711D01*
X249477Y15738D01*
X249329Y15706D01*
X249205Y15618D01*
X249125Y15489D01*
X249102Y15358D01*
X249102Y14602D01*
X247614Y13114D01*
X242824Y13114D01*
X242824Y25194D01*
X247614Y25194D01*
X249012Y23796D01*
X249139Y23712D01*
X249288Y23684D01*
X249436Y23717D01*
X249551Y23796D01*
X250078Y24323D01*
X250162Y24449D01*
X250190Y24592D01*
X250190Y27455D01*
X250160Y27604D01*
X250074Y27729D01*
X249946Y27810D01*
X249809Y27836D01*
X249483Y27836D01*
X249334Y27806D01*
X249209Y27720D01*
X249190Y27690D01*
X247614Y26114D01*
X236510Y26114D01*
X235379Y27245D01*
X235253Y27328D01*
X235104Y27356D01*
X234956Y27324D01*
X234841Y27245D01*
X233710Y26114D01*
X222569Y26114D01*
X222552Y26125D01*
X222403Y26153D01*
X222255Y26120D01*
X222140Y26041D01*
X218070Y21971D01*
X212607Y21971D01*
X212459Y21941D01*
X212338Y21859D01*
X211832Y21353D01*
X209692Y20467D01*
X207376Y20467D01*
X205236Y21353D01*
X203598Y22991D01*
X202712Y25131D01*
X202712Y27447D01*
X203598Y29587D01*
X205236Y31225D01*
X207376Y32111D01*
X209692Y32111D01*
X211832Y31225D01*
X212338Y30719D01*
X212464Y30635D01*
X212607Y30607D01*
X214335Y30607D01*
X214483Y30637D01*
X214604Y30719D01*
X215775Y31890D01*
X215859Y32016D01*
X215887Y32165D01*
X215854Y32313D01*
X215766Y32437D01*
X215637Y32517D01*
X215506Y32540D01*
X215151Y32540D01*
X212827Y33502D01*
X211048Y35281D01*
X210086Y37605D01*
X210086Y39500D01*
X210056Y39649D01*
X209970Y39774D01*
X209842Y39856D01*
X209693Y39881D01*
X209545Y39846D01*
X209436Y39770D01*
X201208Y31542D01*
X201124Y31415D01*
X201096Y31272D01*
X201096Y28364D01*
X199608Y26876D01*
X188504Y26876D01*
X187467Y27913D01*
X187341Y27996D01*
X187192Y28024D01*
X187044Y27992D01*
X186929Y27913D01*
X185384Y26368D01*
X174280Y26368D01*
X172792Y27856D01*
X172792Y36960D01*
X174280Y38448D01*
X185384Y38448D01*
X186421Y37412D01*
X186547Y37328D01*
X186696Y37300D01*
X186844Y37333D01*
X186959Y37412D01*
X188504Y38956D01*
X199124Y38956D01*
X199273Y38986D01*
X199394Y39068D01*
X221010Y60684D01*
X221094Y60811D01*
X221122Y60954D01*
X221122Y62951D01*
X222222Y64051D01*
X222306Y64177D01*
X222334Y64326D01*
X222301Y64474D01*
X222222Y64589D01*
X221122Y65689D01*
X221122Y68385D01*
X221092Y68534D01*
X221006Y68659D01*
X220878Y68741D01*
X220729Y68766D01*
X220581Y68731D01*
X220472Y68655D01*
X198299Y46482D01*
X196992Y46482D01*
X196843Y46452D01*
X196718Y46366D01*
X196640Y46247D01*
X196622Y46203D01*
X194843Y44424D01*
X192520Y43462D01*
X190005Y43462D01*
X187681Y44424D01*
X185902Y46203D01*
X184940Y48527D01*
X184940Y51042D01*
X185902Y53365D01*
X187681Y55144D01*
X190005Y56106D01*
X192520Y56106D01*
X194843Y55144D01*
X195963Y54024D01*
X196089Y53940D01*
X196238Y53913D01*
X196386Y53945D01*
X196501Y54024D01*
X200247Y57770D01*
X200331Y57896D01*
X200359Y58045D01*
X200326Y58193D01*
X200238Y58317D01*
X200109Y58397D01*
X199978Y58420D01*
X182378Y58420D01*
X182230Y58390D01*
X182109Y58308D01*
X170945Y47144D01*
X162361Y47144D01*
X162212Y47114D01*
X162087Y47028D01*
X162006Y46900D01*
X162002Y46882D01*
X160492Y45372D01*
X149388Y45372D01*
X147900Y46860D01*
X147900Y46967D01*
X147870Y47116D01*
X147784Y47241D01*
X147656Y47322D01*
X147519Y47348D01*
X144327Y47348D01*
X144178Y47318D01*
X144053Y47232D01*
X144034Y47202D01*
X142458Y45626D01*
X131354Y45626D01*
X129866Y47114D01*
X129866Y56218D01*
X131354Y57706D01*
X142458Y57706D01*
X144038Y56126D01*
X144062Y56091D01*
X144190Y56010D01*
X144327Y55984D01*
X147762Y55984D01*
X147911Y56014D01*
X148032Y56096D01*
X149388Y57452D01*
X160492Y57452D01*
X162053Y55892D01*
X162179Y55808D01*
X162322Y55780D01*
X167210Y55780D01*
X167358Y55810D01*
X167479Y55892D01*
X178669Y67082D01*
X178669Y67082D01*
X178790Y67163D01*
X179022Y67395D01*
X179274Y67395D01*
X179423Y67425D01*
X179548Y67511D01*
X179630Y67638D01*
X179655Y67776D01*
X179655Y68028D01*
X179887Y68260D01*
X179965Y68377D01*
X191912Y80325D01*
X191996Y80451D01*
X192024Y80594D01*
X192024Y83566D01*
X191994Y83715D01*
X191908Y83840D01*
X191780Y83921D01*
X191643Y83947D01*
X179379Y83947D01*
X179230Y83917D01*
X179105Y83831D01*
X179024Y83703D01*
X178998Y83566D01*
X178998Y83482D01*
X177510Y81994D01*
X166406Y81994D01*
X164946Y83454D01*
X164819Y83538D01*
X164676Y83566D01*
X159225Y83566D01*
X159076Y83536D01*
X158951Y83450D01*
X158870Y83322D01*
X158844Y83185D01*
X158844Y82332D01*
X157356Y80844D01*
X148252Y80844D01*
X146764Y82332D01*
X146764Y93436D01*
X148252Y94924D01*
X157356Y94924D01*
X158844Y93436D01*
X158844Y92583D01*
X158874Y92434D01*
X158960Y92309D01*
X159088Y92228D01*
X159225Y92202D01*
X164537Y92202D01*
X164686Y92232D01*
X164811Y92318D01*
X164892Y92446D01*
X164918Y92583D01*
X164918Y92586D01*
X166406Y94074D01*
X177510Y94074D01*
X178890Y92695D01*
X179016Y92611D01*
X179159Y92583D01*
X194396Y92583D01*
X194544Y92613D01*
X194665Y92695D01*
X195975Y94004D01*
X196058Y94131D01*
X196086Y94274D01*
X196086Y94457D01*
X196318Y94689D01*
X196396Y94806D01*
X198989Y97400D01*
X198989Y97400D01*
X199110Y97481D01*
X199342Y97713D01*
X199594Y97713D01*
X199743Y97743D01*
X199868Y97829D01*
X199950Y97956D01*
X199975Y98094D01*
X199975Y98346D01*
X203231Y101602D01*
X203668Y101602D01*
X203817Y101632D01*
X203938Y101713D01*
X204444Y102220D01*
X204528Y102346D01*
X204556Y102495D01*
X204523Y102643D01*
X204435Y102767D01*
X204306Y102847D01*
X204175Y102870D01*
X155605Y102870D01*
X155605Y102870D01*
X155462Y102898D01*
X155134Y102898D01*
X154955Y103077D01*
X154829Y103160D01*
X154680Y103188D01*
X154532Y103156D01*
X154417Y103077D01*
X154238Y102898D01*
X153910Y102898D01*
X153773Y102870D01*
X136641Y102870D01*
X128775Y110736D01*
X128649Y110820D01*
X128506Y110848D01*
X125531Y110848D01*
X125382Y110818D01*
X125257Y110732D01*
X125238Y110702D01*
X123662Y109126D01*
X112558Y109126D01*
X111070Y110614D01*
X111070Y110617D01*
X111040Y110766D01*
X110954Y110891D01*
X110826Y110972D01*
X110689Y110998D01*
X89629Y110998D01*
X89480Y110968D01*
X89355Y110882D01*
X89274Y110754D01*
X89248Y110617D01*
X89248Y109764D01*
X87760Y108276D01*
X78656Y108276D01*
X77168Y109764D01*
X77168Y120868D01*
X78656Y122356D01*
X87760Y122356D01*
X89248Y120868D01*
X89248Y120015D01*
X89278Y119866D01*
X89364Y119741D01*
X89492Y119660D01*
X89629Y119634D01*
X110828Y119634D01*
X110977Y119664D01*
X111098Y119746D01*
X112558Y121206D01*
X123662Y121206D01*
X125242Y119626D01*
X125266Y119591D01*
X125394Y119510D01*
X125531Y119484D01*
X132241Y119484D01*
X140107Y111618D01*
X140233Y111534D01*
X140376Y111506D01*
X153004Y111506D01*
X153012Y111507D01*
X153016Y111506D01*
X153767Y111506D01*
X153767Y111506D01*
X153910Y111478D01*
X154238Y111478D01*
X154417Y111300D01*
X154543Y111216D01*
X154692Y111188D01*
X154840Y111221D01*
X154955Y111300D01*
X155134Y111478D01*
X155462Y111478D01*
X155599Y111506D01*
X174790Y111506D01*
X174939Y111536D01*
X175064Y111622D01*
X175145Y111750D01*
X175171Y111899D01*
X175136Y112047D01*
X175060Y112156D01*
X174404Y112812D01*
X174404Y117602D01*
X186484Y117602D01*
X186484Y112812D01*
X185829Y112156D01*
X185745Y112030D01*
X185717Y111881D01*
X185750Y111733D01*
X185837Y111609D01*
X185966Y111529D01*
X186098Y111506D01*
X187790Y111506D01*
X187939Y111536D01*
X188064Y111622D01*
X188145Y111750D01*
X188171Y111899D01*
X188136Y112047D01*
X188060Y112156D01*
X187404Y112812D01*
X187404Y123916D01*
X188892Y125404D01*
X189253Y125404D01*
X189402Y125434D01*
X189527Y125520D01*
X189608Y125648D01*
X189634Y125785D01*
X189634Y127150D01*
X189604Y127298D01*
X189522Y127419D01*
X188442Y128499D01*
X187480Y130823D01*
X187480Y133338D01*
X188442Y135661D01*
X190221Y137440D01*
X192545Y138402D01*
X195060Y138402D01*
X197383Y137440D01*
X199162Y135661D01*
X200124Y133338D01*
X200124Y130823D01*
X199162Y128499D01*
X198382Y127719D01*
X198298Y127593D01*
X198270Y127450D01*
X198270Y125288D01*
X198300Y125139D01*
X198382Y125019D01*
X199484Y123916D01*
X199484Y123063D01*
X199514Y122914D01*
X199600Y122789D01*
X199728Y122708D01*
X199865Y122682D01*
X223023Y122682D01*
X233172Y112533D01*
X233172Y111491D01*
X233202Y111342D01*
X233288Y111217D01*
X233416Y111136D01*
X233553Y111110D01*
X234043Y111110D01*
X235143Y110010D01*
X235269Y109926D01*
X235418Y109898D01*
X235566Y109931D01*
X235681Y110010D01*
X236781Y111110D01*
X237226Y111110D01*
X237375Y111140D01*
X237500Y111226D01*
X237582Y111354D01*
X237607Y111503D01*
X237572Y111651D01*
X237496Y111760D01*
X222622Y126634D01*
X222495Y126718D01*
X222352Y126746D01*
X216550Y126746D01*
X216401Y126716D01*
X216276Y126630D01*
X216198Y126511D01*
X216179Y126467D01*
X214401Y124688D01*
X212077Y123726D01*
X209562Y123726D01*
X207239Y124688D01*
X205460Y126467D01*
X204498Y128791D01*
X204498Y131306D01*
X205460Y133629D01*
X207239Y135408D01*
X209562Y136370D01*
X212077Y136370D01*
X214401Y135408D01*
X216179Y133629D01*
X216198Y133585D01*
X216282Y133459D01*
X216409Y133377D01*
X216550Y133350D01*
X225246Y133350D01*
X245214Y113382D01*
X245214Y111491D01*
X245244Y111342D01*
X245330Y111217D01*
X245458Y111136D01*
X245595Y111110D01*
X247043Y111110D01*
X247710Y110443D01*
X247836Y110359D01*
X247985Y110331D01*
X248133Y110364D01*
X248257Y110452D01*
X248337Y110581D01*
X248360Y110712D01*
X248360Y112826D01*
X248330Y112975D01*
X248248Y113096D01*
X226422Y134922D01*
X226295Y135006D01*
X226152Y135034D01*
X218824Y135034D01*
X217336Y136522D01*
X217336Y145626D01*
X218824Y147114D01*
X229928Y147114D01*
X231426Y145617D01*
X231552Y145533D01*
X231701Y145505D01*
X231849Y145538D01*
X231964Y145617D01*
X233208Y146860D01*
X244312Y146860D01*
X244671Y146501D01*
X244797Y146418D01*
X244946Y146390D01*
X245094Y146422D01*
X245210Y146501D01*
X247284Y148576D01*
X247368Y148703D01*
X247396Y148846D01*
X247396Y165835D01*
X251221Y169660D01*
X251305Y169787D01*
X251333Y169930D01*
X251333Y184903D01*
X252880Y188637D01*
X254094Y189852D01*
X254178Y189978D01*
X254206Y190127D01*
X254173Y190275D01*
X254085Y190399D01*
X253956Y190479D01*
X253825Y190502D01*
X10782Y190502D01*
X10633Y190472D01*
X10508Y190386D01*
X10426Y190258D01*
X10401Y190121D01*
X10354Y153284D01*
X10384Y153136D01*
X10470Y153011D01*
X10597Y152929D01*
X10747Y152903D01*
X10894Y152938D01*
X11004Y153014D01*
X15034Y157044D01*
X24082Y157044D01*
X30084Y151042D01*
X30210Y150959D01*
X30359Y150931D01*
X30507Y150963D01*
X30622Y151042D01*
X36624Y157044D01*
X45672Y157044D01*
X51674Y151042D01*
X51800Y150959D01*
X51949Y150931D01*
X52097Y150963D01*
X52212Y151042D01*
X58214Y157044D01*
X67262Y157044D01*
X73660Y150646D01*
X73660Y141598D01*
X67168Y135106D01*
X67084Y134979D01*
X67056Y134836D01*
X67056Y125973D01*
X61367Y120284D01*
X61283Y120158D01*
X61255Y120009D01*
X61288Y119861D01*
X61376Y119737D01*
X61505Y119657D01*
X61636Y119634D01*
X63787Y119634D01*
X63936Y119664D01*
X64061Y119750D01*
X64142Y119878D01*
X64168Y120015D01*
X64168Y120868D01*
X65656Y122356D01*
X74760Y122356D01*
X76248Y120868D01*
X76248Y109764D01*
X74760Y108276D01*
X65656Y108276D01*
X64127Y109805D01*
X64000Y109889D01*
X63851Y109917D01*
X63703Y109884D01*
X63588Y109805D01*
X48191Y94408D01*
X37535Y94408D01*
X37535Y94488D01*
X31652Y94488D01*
X31652Y92964D01*
X37154Y92964D01*
X37154Y92887D01*
X37184Y92738D01*
X37270Y92613D01*
X37398Y92532D01*
X37535Y92506D01*
X50491Y92506D01*
X50640Y92536D01*
X50765Y92622D01*
X50784Y92652D01*
X52360Y94228D01*
X63464Y94228D01*
X65044Y92648D01*
X65068Y92613D01*
X65196Y92532D01*
X65333Y92506D01*
X72158Y92506D01*
X72233Y92456D01*
X72376Y92428D01*
X72704Y92428D01*
X72883Y92250D01*
X73009Y92166D01*
X73158Y92138D01*
X73306Y92171D01*
X73421Y92250D01*
X73600Y92428D01*
X73928Y92428D01*
X74065Y92456D01*
X81479Y92456D01*
X81628Y92486D01*
X81753Y92572D01*
X81834Y92700D01*
X81860Y92837D01*
X81860Y92840D01*
X83348Y94328D01*
X94452Y94328D01*
X96032Y92748D01*
X96056Y92713D01*
X96184Y92632D01*
X96321Y92606D01*
X102350Y92606D01*
X102416Y92540D01*
X102542Y92456D01*
X102685Y92428D01*
X104200Y92428D01*
X104379Y92250D01*
X104505Y92166D01*
X104654Y92138D01*
X104802Y92171D01*
X104917Y92250D01*
X105096Y92428D01*
X105424Y92428D01*
X105561Y92456D01*
X113830Y92456D01*
X113979Y92486D01*
X114100Y92568D01*
X115606Y94074D01*
X126710Y94074D01*
X128198Y92586D01*
X128198Y92583D01*
X128228Y92434D01*
X128314Y92309D01*
X128442Y92228D01*
X128579Y92202D01*
X133383Y92202D01*
X133532Y92232D01*
X133657Y92318D01*
X133738Y92446D01*
X133764Y92583D01*
X133764Y93436D01*
X135252Y94924D01*
X144356Y94924D01*
X145844Y93436D01*
X145844Y82332D01*
X144356Y80844D01*
X135252Y80844D01*
X133764Y82332D01*
X133764Y83185D01*
X133734Y83334D01*
X133648Y83459D01*
X133520Y83540D01*
X133383Y83566D01*
X128440Y83566D01*
X128291Y83536D01*
X128171Y83454D01*
X126710Y81994D01*
X115606Y81994D01*
X114107Y83493D01*
X114088Y83588D01*
X114002Y83713D01*
X113874Y83794D01*
X113737Y83820D01*
X105567Y83820D01*
X105567Y83820D01*
X105424Y83848D01*
X105096Y83848D01*
X104917Y84027D01*
X104791Y84110D01*
X104642Y84138D01*
X104494Y84106D01*
X104379Y84027D01*
X104200Y83848D01*
X103447Y83848D01*
X103299Y83818D01*
X103178Y83736D01*
X102881Y83439D01*
X99303Y83439D01*
X98884Y83858D01*
X98758Y83942D01*
X98615Y83970D01*
X96321Y83970D01*
X96172Y83940D01*
X96047Y83854D01*
X96028Y83824D01*
X94452Y82248D01*
X85972Y82248D01*
X85824Y82218D01*
X85703Y82136D01*
X85545Y81978D01*
X85461Y81852D01*
X85433Y81703D01*
X85466Y81555D01*
X85554Y81431D01*
X85683Y81351D01*
X85814Y81328D01*
X88138Y81328D01*
X88138Y69248D01*
X84445Y69248D01*
X84296Y69218D01*
X84171Y69132D01*
X84090Y69004D01*
X84064Y68867D01*
X84064Y61777D01*
X84094Y61628D01*
X84180Y61503D01*
X84210Y61484D01*
X85786Y59908D01*
X85786Y48804D01*
X84298Y47316D01*
X75194Y47316D01*
X73706Y48804D01*
X73706Y59908D01*
X75286Y61488D01*
X75321Y61512D01*
X75402Y61640D01*
X75428Y61777D01*
X75428Y83439D01*
X75398Y83588D01*
X75312Y83713D01*
X75184Y83794D01*
X75047Y83820D01*
X74071Y83820D01*
X74071Y83820D01*
X73928Y83848D01*
X73600Y83848D01*
X73421Y84027D01*
X73295Y84110D01*
X73146Y84138D01*
X72998Y84106D01*
X72883Y84027D01*
X72704Y83848D01*
X72376Y83848D01*
X72239Y83820D01*
X71445Y83820D01*
X71296Y83790D01*
X71171Y83704D01*
X71090Y83576D01*
X71064Y83439D01*
X71064Y61777D01*
X71094Y61628D01*
X71180Y61503D01*
X71210Y61484D01*
X72786Y59908D01*
X72786Y48804D01*
X71298Y47316D01*
X62194Y47316D01*
X60706Y48804D01*
X60706Y59908D01*
X62286Y61488D01*
X62321Y61512D01*
X62402Y61640D01*
X62428Y61777D01*
X62428Y68767D01*
X62398Y68916D01*
X62312Y69041D01*
X62184Y69122D01*
X62047Y69148D01*
X58674Y69148D01*
X58674Y81228D01*
X60640Y81228D01*
X60788Y81258D01*
X60913Y81344D01*
X60995Y81472D01*
X61020Y81621D01*
X60986Y81769D01*
X60909Y81878D01*
X60751Y82036D01*
X60625Y82120D01*
X60482Y82148D01*
X52360Y82148D01*
X50780Y83728D01*
X50756Y83763D01*
X50628Y83844D01*
X50491Y83870D01*
X32035Y83870D01*
X31886Y83840D01*
X31761Y83754D01*
X31680Y83626D01*
X31654Y83489D01*
X31654Y81174D01*
X30166Y79686D01*
X28876Y79686D01*
X28876Y85188D01*
X27352Y85188D01*
X27352Y79305D01*
X27432Y79305D01*
X27432Y35608D01*
X27462Y35460D01*
X27544Y35339D01*
X33274Y29608D01*
X33274Y21192D01*
X27322Y15240D01*
X18906Y15240D01*
X12954Y21192D01*
X12954Y29608D01*
X18684Y35339D01*
X18768Y35465D01*
X18796Y35608D01*
X18796Y79305D01*
X18876Y79305D01*
X18876Y85188D01*
X14576Y85188D01*
X14576Y89488D01*
X13052Y89488D01*
X13052Y85186D01*
X10648Y85186D01*
X10500Y85156D01*
X10375Y85070D01*
X10293Y84942D01*
X10267Y84805D01*
X10173Y10541D01*
X10203Y10393D01*
X10289Y10268D01*
X10417Y10186D01*
X10554Y10160D01*
X402210Y10160D01*
X402358Y10190D01*
G37*
%LPC*%
G36*
X233208Y147780D02*
X231710Y149278D01*
X231584Y149361D01*
X231435Y149389D01*
X231287Y149357D01*
X231172Y149278D01*
X229928Y148034D01*
X225138Y148034D01*
X225138Y160114D01*
X229928Y160114D01*
X231426Y158617D01*
X231552Y158533D01*
X231701Y158505D01*
X231849Y158538D01*
X231964Y158617D01*
X233208Y159860D01*
X234061Y159860D01*
X234210Y159890D01*
X234335Y159976D01*
X234416Y160104D01*
X234442Y160241D01*
X234442Y160614D01*
X234412Y160762D01*
X234330Y160883D01*
X232001Y163213D01*
X231875Y163296D01*
X231726Y163324D01*
X231577Y163292D01*
X231462Y163213D01*
X230657Y162407D01*
X228334Y161445D01*
X225819Y161445D01*
X223495Y162407D01*
X221716Y164186D01*
X220754Y166510D01*
X220754Y169025D01*
X221716Y171348D01*
X223495Y173127D01*
X225819Y174089D01*
X228334Y174089D01*
X230657Y173127D01*
X231587Y172197D01*
X231713Y172113D01*
X231856Y172085D01*
X235342Y172085D01*
X243078Y164349D01*
X243078Y160241D01*
X243108Y160092D01*
X243194Y159967D01*
X243322Y159886D01*
X243459Y159860D01*
X244312Y159860D01*
X245800Y158372D01*
X245800Y149268D01*
X244312Y147780D01*
X233208Y147780D01*
G37*
G36*
X382029Y26698D02*
X379705Y27660D01*
X378371Y28994D01*
X378245Y29078D01*
X378102Y29106D01*
X373181Y29106D01*
X373032Y29076D01*
X372907Y28990D01*
X372888Y28960D01*
X371312Y27384D01*
X360208Y27384D01*
X358628Y28964D01*
X358604Y28999D01*
X358476Y29080D01*
X358339Y29106D01*
X357433Y29106D01*
X357284Y29076D01*
X357159Y28990D01*
X357078Y28862D01*
X357064Y28790D01*
X355564Y27290D01*
X344460Y27290D01*
X342972Y28778D01*
X342972Y34106D01*
X342942Y34254D01*
X342860Y34375D01*
X341884Y35351D01*
X341884Y90943D01*
X347207Y96266D01*
X347509Y96266D01*
X347658Y96296D01*
X347783Y96382D01*
X347864Y96510D01*
X347890Y96647D01*
X347890Y101219D01*
X347860Y101368D01*
X347774Y101493D01*
X347646Y101574D01*
X347509Y101600D01*
X344172Y101600D01*
X344023Y101570D01*
X343902Y101488D01*
X337170Y94756D01*
X337086Y94629D01*
X337058Y94486D01*
X337058Y41544D01*
X337088Y41395D01*
X337174Y41270D01*
X337293Y41192D01*
X337337Y41174D01*
X339116Y39395D01*
X340078Y37072D01*
X340078Y34557D01*
X339116Y32233D01*
X337337Y30454D01*
X335014Y29492D01*
X332499Y29492D01*
X330175Y30454D01*
X328396Y32233D01*
X327434Y34557D01*
X327434Y37072D01*
X328396Y39395D01*
X330175Y41174D01*
X330219Y41192D01*
X330345Y41276D01*
X330427Y41404D01*
X330454Y41544D01*
X330454Y97380D01*
X341278Y108204D01*
X347509Y108204D01*
X347658Y108234D01*
X347783Y108320D01*
X347864Y108448D01*
X347890Y108585D01*
X347890Y113936D01*
X347971Y114587D01*
X348104Y114977D01*
X348303Y115346D01*
X348561Y115678D01*
X348869Y115962D01*
X349220Y116192D01*
X349605Y116361D01*
X350012Y116464D01*
X350446Y116500D01*
X351461Y116500D01*
X351610Y116530D01*
X351735Y116616D01*
X351816Y116744D01*
X351842Y116881D01*
X351842Y117815D01*
X351812Y117964D01*
X351726Y118089D01*
X351598Y118170D01*
X351461Y118196D01*
X350454Y118196D01*
X349803Y118277D01*
X349413Y118410D01*
X349044Y118609D01*
X348712Y118867D01*
X348428Y119175D01*
X348198Y119526D01*
X348029Y119911D01*
X347926Y120318D01*
X347890Y120752D01*
X347890Y126365D01*
X347860Y126514D01*
X347774Y126639D01*
X347646Y126720D01*
X347509Y126746D01*
X341886Y126746D01*
X341737Y126716D01*
X341616Y126634D01*
X335824Y120843D01*
X335741Y120716D01*
X335713Y120567D01*
X335742Y120427D01*
X335760Y120384D01*
X335760Y117869D01*
X334798Y115545D01*
X333019Y113766D01*
X330696Y112804D01*
X328181Y112804D01*
X325857Y113766D01*
X324078Y115545D01*
X323116Y117869D01*
X323116Y120384D01*
X324078Y122707D01*
X325857Y124486D01*
X328181Y125448D01*
X330696Y125448D01*
X330739Y125430D01*
X330888Y125401D01*
X331037Y125432D01*
X331155Y125512D01*
X338992Y133350D01*
X347497Y133350D01*
X347646Y133380D01*
X347771Y133466D01*
X347853Y133594D01*
X347878Y133722D01*
X348007Y139401D01*
X348092Y140008D01*
X348228Y140398D01*
X348430Y140766D01*
X348690Y141096D01*
X349000Y141378D01*
X349353Y141606D01*
X349739Y141772D01*
X350147Y141872D01*
X350581Y141905D01*
X353998Y141881D01*
X354147Y141910D01*
X354273Y141995D01*
X354355Y142122D01*
X354382Y142262D01*
X354382Y148320D01*
X355870Y149808D01*
X361909Y149808D01*
X362058Y149838D01*
X362183Y149924D01*
X362264Y150052D01*
X362290Y150189D01*
X362290Y153736D01*
X362371Y154387D01*
X362474Y154690D01*
X362494Y154840D01*
X362453Y154986D01*
X362358Y155105D01*
X362225Y155177D01*
X362114Y155194D01*
X351678Y155194D01*
X351529Y155164D01*
X351404Y155078D01*
X351326Y154959D01*
X351308Y154915D01*
X349529Y153136D01*
X347206Y152174D01*
X344691Y152174D01*
X342367Y153136D01*
X340588Y154915D01*
X339626Y157239D01*
X339626Y159754D01*
X340588Y162077D01*
X342367Y163856D01*
X344691Y164818D01*
X347206Y164818D01*
X349529Y163856D01*
X351308Y162077D01*
X351326Y162033D01*
X351410Y161907D01*
X351538Y161825D01*
X351678Y161798D01*
X369668Y161798D01*
X375608Y155857D01*
X375735Y155774D01*
X375884Y155746D01*
X376086Y155808D01*
X376368Y155992D01*
X376752Y156161D01*
X377159Y156264D01*
X377593Y156300D01*
X383380Y156300D01*
X384031Y156219D01*
X384421Y156086D01*
X384790Y155887D01*
X385122Y155630D01*
X385406Y155321D01*
X385636Y154970D01*
X385805Y154585D01*
X385908Y154178D01*
X385944Y153744D01*
X385944Y152729D01*
X385974Y152580D01*
X386060Y152455D01*
X386188Y152374D01*
X386325Y152348D01*
X387310Y152348D01*
X387458Y152378D01*
X387583Y152464D01*
X387665Y152592D01*
X387691Y152730D01*
X387687Y153693D01*
X387696Y153908D01*
X387765Y154329D01*
X387901Y154727D01*
X388100Y155096D01*
X388358Y155428D01*
X388667Y155712D01*
X389018Y155942D01*
X389402Y156111D01*
X389809Y156214D01*
X390243Y156250D01*
X394843Y156250D01*
X394992Y156280D01*
X395117Y156366D01*
X395198Y156494D01*
X395224Y156631D01*
X395224Y157745D01*
X404415Y166936D01*
X461369Y166936D01*
X461518Y166966D01*
X461643Y167052D01*
X461662Y167082D01*
X463238Y168658D01*
X474342Y168658D01*
X475830Y167170D01*
X475830Y158066D01*
X474342Y156578D01*
X463238Y156578D01*
X461658Y158158D01*
X461634Y158193D01*
X461506Y158274D01*
X461369Y158300D01*
X408150Y158300D01*
X408002Y158270D01*
X407881Y158188D01*
X406643Y156950D01*
X406559Y156824D01*
X406531Y156675D01*
X406564Y156527D01*
X406652Y156403D01*
X406781Y156323D01*
X406912Y156300D01*
X408849Y156300D01*
X409063Y156291D01*
X409485Y156220D01*
X409881Y156083D01*
X410250Y155882D01*
X410581Y155623D01*
X410864Y155314D01*
X411093Y154962D01*
X411260Y154577D01*
X411362Y154170D01*
X411397Y153735D01*
X411393Y152730D01*
X411423Y152582D01*
X411508Y152456D01*
X411635Y152374D01*
X411774Y152348D01*
X412759Y152348D01*
X412908Y152378D01*
X413033Y152464D01*
X413114Y152592D01*
X413140Y152729D01*
X413140Y153736D01*
X413221Y154387D01*
X413354Y154777D01*
X413553Y155146D01*
X413811Y155478D01*
X414119Y155762D01*
X414470Y155992D01*
X414855Y156161D01*
X415262Y156264D01*
X415696Y156300D01*
X421580Y156300D01*
X422231Y156219D01*
X422621Y156086D01*
X422990Y155887D01*
X423322Y155630D01*
X423606Y155321D01*
X423836Y154970D01*
X424005Y154585D01*
X424108Y154178D01*
X424144Y153744D01*
X424144Y150189D01*
X424174Y150040D01*
X424260Y149915D01*
X424388Y149834D01*
X424525Y149808D01*
X430514Y149808D01*
X432002Y148320D01*
X432002Y142281D01*
X432032Y142132D01*
X432118Y142007D01*
X432246Y141926D01*
X432383Y141900D01*
X435930Y141900D01*
X436581Y141819D01*
X436971Y141686D01*
X437340Y141487D01*
X437672Y141230D01*
X437956Y140921D01*
X438186Y140570D01*
X438355Y140185D01*
X438458Y139778D01*
X438494Y139344D01*
X438494Y133510D01*
X438413Y132859D01*
X438280Y132469D01*
X438081Y132100D01*
X437824Y131768D01*
X437515Y131484D01*
X437164Y131254D01*
X436779Y131085D01*
X436372Y130982D01*
X435938Y130946D01*
X434923Y130946D01*
X434774Y130916D01*
X434649Y130830D01*
X434568Y130702D01*
X434542Y130565D01*
X434542Y129531D01*
X434572Y129382D01*
X434658Y129257D01*
X434786Y129176D01*
X434923Y129150D01*
X435930Y129150D01*
X436581Y129069D01*
X436971Y128936D01*
X437340Y128737D01*
X437672Y128480D01*
X437956Y128171D01*
X438186Y127820D01*
X438355Y127435D01*
X438458Y127028D01*
X438494Y126594D01*
X438494Y122260D01*
X438413Y121609D01*
X438280Y121219D01*
X438081Y120850D01*
X437824Y120518D01*
X437515Y120234D01*
X437164Y120004D01*
X436779Y119835D01*
X436372Y119732D01*
X435938Y119696D01*
X419733Y119696D01*
X419584Y119666D01*
X419459Y119580D01*
X419378Y119452D01*
X419352Y119315D01*
X419352Y115181D01*
X419382Y115032D01*
X419468Y114907D01*
X419596Y114826D01*
X419733Y114800D01*
X435980Y114800D01*
X436631Y114719D01*
X437021Y114586D01*
X437390Y114387D01*
X437722Y114130D01*
X438006Y113821D01*
X438236Y113470D01*
X438405Y113085D01*
X438508Y112678D01*
X438544Y112244D01*
X438544Y109347D01*
X438574Y109198D01*
X438660Y109073D01*
X438788Y108992D01*
X438925Y108966D01*
X465559Y108966D01*
X465708Y108996D01*
X465833Y109082D01*
X465914Y109210D01*
X465940Y109347D01*
X465940Y109804D01*
X470742Y109804D01*
X470742Y114981D01*
X474218Y114981D01*
X474218Y109804D01*
X475742Y109804D01*
X475742Y114981D01*
X477532Y114981D01*
X479020Y113493D01*
X479020Y112492D01*
X479050Y112343D01*
X479136Y112218D01*
X479264Y112137D01*
X479401Y112111D01*
X482540Y112111D01*
X482644Y112042D01*
X482787Y112014D01*
X496413Y112014D01*
X496413Y112014D01*
X496556Y111986D01*
X496884Y111986D01*
X497063Y111808D01*
X497189Y111724D01*
X497338Y111696D01*
X497486Y111729D01*
X497601Y111808D01*
X497780Y111986D01*
X498108Y111986D01*
X498245Y112014D01*
X511335Y112014D01*
X511484Y112044D01*
X511609Y112130D01*
X511690Y112258D01*
X511716Y112395D01*
X511716Y113248D01*
X513204Y114736D01*
X522308Y114736D01*
X523796Y113248D01*
X523796Y102144D01*
X522844Y101192D01*
X522760Y101065D01*
X522732Y100922D01*
X522732Y92677D01*
X522762Y92528D01*
X522848Y92403D01*
X522976Y92322D01*
X523113Y92296D01*
X523966Y92296D01*
X525454Y90808D01*
X525454Y81704D01*
X523966Y80216D01*
X512862Y80216D01*
X511374Y81704D01*
X511374Y90808D01*
X512862Y92296D01*
X513715Y92296D01*
X513864Y92326D01*
X513989Y92412D01*
X514070Y92540D01*
X514096Y92677D01*
X514096Y100275D01*
X514066Y100424D01*
X513980Y100549D01*
X513852Y100630D01*
X513715Y100656D01*
X513204Y100656D01*
X511716Y102144D01*
X511716Y102997D01*
X511686Y103146D01*
X511600Y103271D01*
X511472Y103352D01*
X511335Y103378D01*
X498251Y103378D01*
X498251Y103378D01*
X498108Y103406D01*
X497780Y103406D01*
X497601Y103585D01*
X497475Y103668D01*
X497326Y103696D01*
X497178Y103664D01*
X497063Y103585D01*
X496884Y103406D01*
X496556Y103406D01*
X496419Y103378D01*
X482787Y103378D01*
X482638Y103348D01*
X482539Y103281D01*
X479401Y103281D01*
X479252Y103251D01*
X479127Y103165D01*
X479046Y103037D01*
X479020Y102900D01*
X479020Y101899D01*
X477532Y100411D01*
X475742Y100411D01*
X475742Y105588D01*
X474218Y105588D01*
X474218Y100411D01*
X471829Y100411D01*
X471681Y100381D01*
X471605Y100330D01*
X438875Y100330D01*
X438726Y100300D01*
X438601Y100214D01*
X438520Y100086D01*
X438494Y99949D01*
X438494Y97264D01*
X438417Y96629D01*
X438286Y96238D01*
X438089Y95867D01*
X437834Y95534D01*
X437527Y95248D01*
X437177Y95016D01*
X436793Y94845D01*
X436387Y94739D01*
X435953Y94701D01*
X419731Y94604D01*
X419582Y94573D01*
X419458Y94486D01*
X419377Y94358D01*
X419352Y94223D01*
X419352Y89681D01*
X419382Y89532D01*
X419468Y89407D01*
X419596Y89326D01*
X419733Y89300D01*
X435930Y89300D01*
X436581Y89219D01*
X436971Y89086D01*
X437340Y88887D01*
X437672Y88630D01*
X437956Y88321D01*
X438186Y87970D01*
X438355Y87585D01*
X438458Y87178D01*
X438494Y86744D01*
X438494Y68160D01*
X438413Y67509D01*
X438280Y67119D01*
X438081Y66750D01*
X437824Y66418D01*
X437515Y66134D01*
X437164Y65904D01*
X436779Y65735D01*
X436372Y65632D01*
X435938Y65596D01*
X415635Y65596D01*
X415421Y65605D01*
X414999Y65676D01*
X414603Y65813D01*
X414234Y66014D01*
X413903Y66272D01*
X413620Y66582D01*
X413391Y66934D01*
X413224Y67319D01*
X413122Y67726D01*
X413087Y68161D01*
X413091Y69266D01*
X413062Y69414D01*
X412976Y69540D01*
X412849Y69622D01*
X412710Y69648D01*
X411725Y69648D01*
X411576Y69618D01*
X411451Y69532D01*
X411370Y69404D01*
X411344Y69267D01*
X411344Y68260D01*
X411263Y67609D01*
X411130Y67219D01*
X410931Y66850D01*
X410674Y66518D01*
X410365Y66234D01*
X410014Y66004D01*
X409629Y65835D01*
X409222Y65732D01*
X408788Y65696D01*
X402954Y65696D01*
X402303Y65777D01*
X401913Y65910D01*
X401544Y66109D01*
X401212Y66367D01*
X400928Y66675D01*
X400698Y67026D01*
X400529Y67411D01*
X400426Y67818D01*
X400390Y68252D01*
X400390Y69267D01*
X400360Y69416D01*
X400274Y69541D01*
X400146Y69622D01*
X400009Y69648D01*
X399075Y69648D01*
X398926Y69618D01*
X398801Y69532D01*
X398720Y69404D01*
X398694Y69267D01*
X398694Y68260D01*
X398613Y67609D01*
X398480Y67219D01*
X398281Y66850D01*
X398024Y66518D01*
X397715Y66234D01*
X397364Y66004D01*
X396979Y65835D01*
X396572Y65732D01*
X396138Y65696D01*
X391954Y65696D01*
X391303Y65777D01*
X390913Y65910D01*
X390544Y66109D01*
X390212Y66367D01*
X389928Y66675D01*
X389698Y67026D01*
X389529Y67411D01*
X389426Y67818D01*
X389390Y68252D01*
X389390Y84457D01*
X389360Y84606D01*
X389274Y84731D01*
X389146Y84812D01*
X389009Y84838D01*
X384575Y84838D01*
X384426Y84808D01*
X384301Y84722D01*
X384220Y84594D01*
X384194Y84457D01*
X384194Y68260D01*
X384113Y67609D01*
X383980Y67219D01*
X383781Y66850D01*
X383524Y66518D01*
X383215Y66234D01*
X382864Y66004D01*
X382479Y65835D01*
X382072Y65732D01*
X381638Y65696D01*
X350901Y65696D01*
X350752Y65666D01*
X350627Y65580D01*
X350546Y65452D01*
X350520Y65315D01*
X350520Y39751D01*
X350550Y39602D01*
X350636Y39477D01*
X350764Y39396D01*
X350901Y39370D01*
X355564Y39370D01*
X357081Y37854D01*
X357207Y37770D01*
X357350Y37742D01*
X358339Y37742D01*
X358488Y37772D01*
X358613Y37858D01*
X358632Y37888D01*
X360208Y39464D01*
X371312Y39464D01*
X372892Y37884D01*
X372916Y37849D01*
X373044Y37768D01*
X373181Y37742D01*
X378910Y37742D01*
X379058Y37772D01*
X379179Y37854D01*
X379705Y38380D01*
X382029Y39342D01*
X384544Y39342D01*
X386867Y38380D01*
X388646Y36601D01*
X389608Y34278D01*
X389608Y31763D01*
X388646Y29439D01*
X386867Y27660D01*
X384544Y26698D01*
X382029Y26698D01*
G37*
G36*
X532397Y119408D02*
X530073Y120370D01*
X528294Y122149D01*
X527332Y124473D01*
X527332Y126988D01*
X528294Y129311D01*
X529224Y130241D01*
X529308Y130367D01*
X529336Y130510D01*
X529336Y139573D01*
X529306Y139722D01*
X529220Y139847D01*
X529092Y139928D01*
X528955Y139954D01*
X528876Y139954D01*
X522874Y145956D01*
X522748Y146039D01*
X522599Y146067D01*
X522451Y146035D01*
X522336Y145956D01*
X516334Y139954D01*
X515493Y139954D01*
X515344Y139924D01*
X515219Y139838D01*
X515138Y139710D01*
X515112Y139573D01*
X515112Y137556D01*
X515142Y137407D01*
X515228Y137282D01*
X515347Y137204D01*
X515391Y137186D01*
X517170Y135407D01*
X518132Y133084D01*
X518132Y130569D01*
X517170Y128245D01*
X515391Y126466D01*
X513068Y125504D01*
X510553Y125504D01*
X508229Y126466D01*
X506450Y128245D01*
X505488Y130569D01*
X505488Y133084D01*
X506450Y135407D01*
X508229Y137186D01*
X508273Y137204D01*
X508399Y137288D01*
X508481Y137416D01*
X508508Y137556D01*
X508508Y139573D01*
X508478Y139722D01*
X508392Y139847D01*
X508264Y139928D01*
X508127Y139954D01*
X507286Y139954D01*
X501284Y145956D01*
X501158Y146039D01*
X501009Y146067D01*
X500861Y146035D01*
X500746Y145956D01*
X494744Y139954D01*
X485696Y139954D01*
X479204Y146446D01*
X479077Y146530D01*
X478934Y146558D01*
X476211Y146558D01*
X476062Y146528D01*
X475937Y146442D01*
X475856Y146314D01*
X475830Y146177D01*
X475830Y145066D01*
X474342Y143578D01*
X463238Y143578D01*
X461750Y145066D01*
X461750Y154170D01*
X463238Y155658D01*
X474342Y155658D01*
X474695Y155306D01*
X474821Y155222D01*
X474964Y155194D01*
X478934Y155194D01*
X479083Y155224D01*
X479204Y155306D01*
X485696Y161798D01*
X494744Y161798D01*
X500746Y155796D01*
X500872Y155713D01*
X501021Y155685D01*
X501169Y155717D01*
X501284Y155796D01*
X507286Y161798D01*
X516334Y161798D01*
X522336Y155796D01*
X522462Y155713D01*
X522611Y155685D01*
X522759Y155717D01*
X522874Y155796D01*
X528876Y161798D01*
X537924Y161798D01*
X544322Y155400D01*
X544322Y146352D01*
X538084Y140114D01*
X538000Y139987D01*
X537972Y139844D01*
X537972Y130510D01*
X538002Y130362D01*
X538084Y130241D01*
X539014Y129311D01*
X539976Y126988D01*
X539976Y124473D01*
X539014Y122149D01*
X537235Y120370D01*
X534912Y119408D01*
X532397Y119408D01*
G37*
G36*
X217336Y154836D02*
X217336Y158626D01*
X218824Y160114D01*
X223614Y160114D01*
X223614Y154836D01*
X217336Y154836D01*
G37*
G36*
X218824Y148034D02*
X217336Y149522D01*
X217336Y153312D01*
X223614Y153312D01*
X223614Y148034D01*
X218824Y148034D01*
G37*
G36*
X592124Y139046D02*
X592124Y146836D01*
X593612Y148324D01*
X612902Y148324D01*
X612902Y139046D01*
X592124Y139046D01*
G37*
G36*
X614426Y139046D02*
X614426Y148324D01*
X633716Y148324D01*
X635204Y146836D01*
X635204Y139046D01*
X614426Y139046D01*
G37*
G36*
X614426Y128244D02*
X614426Y137522D01*
X635204Y137522D01*
X635204Y129732D01*
X633716Y128244D01*
X614426Y128244D01*
G37*
G36*
X593612Y128244D02*
X592124Y129732D01*
X592124Y137522D01*
X612902Y137522D01*
X612902Y128244D01*
X593612Y128244D01*
G37*
G36*
X111070Y128928D02*
X111070Y132718D01*
X112558Y134206D01*
X117348Y134206D01*
X117348Y128928D01*
X111070Y128928D01*
G37*
G36*
X118872Y128928D02*
X118872Y134206D01*
X123662Y134206D01*
X125150Y132718D01*
X125150Y128928D01*
X118872Y128928D01*
G37*
G36*
X118872Y122126D02*
X118872Y127404D01*
X125150Y127404D01*
X125150Y123614D01*
X123662Y122126D01*
X118872Y122126D01*
G37*
G36*
X112558Y122126D02*
X111070Y123614D01*
X111070Y127404D01*
X117348Y127404D01*
X117348Y122126D01*
X112558Y122126D01*
G37*
G36*
X174404Y119126D02*
X174404Y123916D01*
X175892Y125404D01*
X179682Y125404D01*
X179682Y119126D01*
X174404Y119126D01*
G37*
G36*
X181206Y119126D02*
X181206Y125404D01*
X184996Y125404D01*
X186484Y123916D01*
X186484Y119126D01*
X181206Y119126D01*
G37*
G36*
X565940Y85134D02*
X565940Y86674D01*
X566119Y86853D01*
X566202Y86979D01*
X566230Y87128D01*
X566198Y87276D01*
X566119Y87391D01*
X565940Y87570D01*
X565940Y87898D01*
X565912Y88035D01*
X565912Y100414D01*
X565882Y100563D01*
X565800Y100684D01*
X564340Y102144D01*
X564340Y113248D01*
X565828Y114736D01*
X574932Y114736D01*
X576420Y113248D01*
X576420Y112395D01*
X576450Y112246D01*
X576536Y112121D01*
X576664Y112040D01*
X576801Y112014D01*
X591743Y112014D01*
X591892Y112044D01*
X592017Y112130D01*
X592098Y112258D01*
X592124Y112395D01*
X592124Y115836D01*
X593612Y117324D01*
X603216Y117324D01*
X604704Y115836D01*
X604704Y100232D01*
X603447Y98974D01*
X603363Y98848D01*
X603335Y98699D01*
X603368Y98551D01*
X603455Y98427D01*
X603584Y98347D01*
X603716Y98324D01*
X612902Y98324D01*
X612902Y89046D01*
X592124Y89046D01*
X592124Y96836D01*
X593553Y98265D01*
X593636Y98391D01*
X593664Y98540D01*
X593632Y98688D01*
X593553Y98803D01*
X592124Y100232D01*
X592124Y102997D01*
X592094Y103146D01*
X592008Y103271D01*
X591880Y103352D01*
X591743Y103378D01*
X576801Y103378D01*
X576652Y103348D01*
X576527Y103262D01*
X576446Y103134D01*
X576420Y102997D01*
X576420Y102144D01*
X574932Y100656D01*
X574929Y100656D01*
X574780Y100626D01*
X574655Y100540D01*
X574574Y100412D01*
X574548Y100275D01*
X574548Y90913D01*
X574578Y90765D01*
X574584Y90757D01*
X574953Y87979D01*
X574402Y87259D01*
X574336Y87123D01*
X574328Y86972D01*
X574380Y86829D01*
X574436Y86758D01*
X574520Y86674D01*
X574520Y85134D01*
X565940Y85134D01*
G37*
G36*
X465940Y111328D02*
X465940Y113493D01*
X467428Y114981D01*
X469218Y114981D01*
X469218Y111328D01*
X465940Y111328D01*
G37*
G36*
X526204Y100656D02*
X524716Y102144D01*
X524716Y113248D01*
X526204Y114736D01*
X535308Y114736D01*
X536796Y113248D01*
X536796Y112395D01*
X536826Y112246D01*
X536912Y112121D01*
X537040Y112040D01*
X537177Y112014D01*
X550959Y112014D01*
X551108Y112044D01*
X551233Y112130D01*
X551314Y112258D01*
X551340Y112395D01*
X551340Y113248D01*
X552828Y114736D01*
X561932Y114736D01*
X563420Y113248D01*
X563420Y102144D01*
X561932Y100656D01*
X552828Y100656D01*
X551340Y102144D01*
X551340Y102997D01*
X551310Y103146D01*
X551224Y103271D01*
X551096Y103352D01*
X550959Y103378D01*
X537177Y103378D01*
X537028Y103348D01*
X536903Y103262D01*
X536822Y103134D01*
X536796Y102997D01*
X536796Y102144D01*
X535308Y100656D01*
X526204Y100656D01*
G37*
G36*
X614426Y89046D02*
X614426Y98324D01*
X633716Y98324D01*
X635204Y96836D01*
X635204Y89046D01*
X614426Y89046D01*
G37*
G36*
X614426Y78244D02*
X614426Y87522D01*
X635204Y87522D01*
X635204Y79732D01*
X633716Y78244D01*
X614426Y78244D01*
G37*
G36*
X593612Y78244D02*
X592124Y79732D01*
X592124Y87522D01*
X612902Y87522D01*
X612902Y78244D01*
X593612Y78244D01*
G37*
G36*
X16062Y79686D02*
X14574Y81174D01*
X14574Y83664D01*
X17352Y83664D01*
X17352Y79686D01*
X16062Y79686D01*
G37*
G36*
X570992Y80582D02*
X570992Y83610D01*
X574520Y83610D01*
X574520Y82070D01*
X573032Y80582D01*
X570992Y80582D01*
G37*
G36*
X567428Y80582D02*
X565940Y82070D01*
X565940Y83610D01*
X569468Y83610D01*
X569468Y80582D01*
X567428Y80582D01*
G37*
G36*
X89662Y76050D02*
X89662Y81328D01*
X94452Y81328D01*
X95940Y79840D01*
X95940Y76050D01*
X89662Y76050D01*
G37*
G36*
X50872Y75950D02*
X50872Y79740D01*
X52360Y81228D01*
X57150Y81228D01*
X57150Y75950D01*
X50872Y75950D01*
G37*
G36*
X114118Y75796D02*
X114118Y79586D01*
X115606Y81074D01*
X120396Y81074D01*
X120396Y75796D01*
X114118Y75796D01*
G37*
G36*
X121920Y75796D02*
X121920Y81074D01*
X126710Y81074D01*
X128198Y79586D01*
X128198Y75796D01*
X121920Y75796D01*
G37*
G36*
X164918Y75796D02*
X164918Y79586D01*
X166406Y81074D01*
X171196Y81074D01*
X171196Y75796D01*
X164918Y75796D01*
G37*
G36*
X172720Y75796D02*
X172720Y81074D01*
X177510Y81074D01*
X178998Y79586D01*
X178998Y75796D01*
X172720Y75796D01*
G37*
G36*
X511374Y74018D02*
X511374Y77808D01*
X512862Y79296D01*
X517652Y79296D01*
X517652Y74018D01*
X511374Y74018D01*
G37*
G36*
X519176Y74018D02*
X519176Y79296D01*
X523966Y79296D01*
X525454Y77808D01*
X525454Y74018D01*
X519176Y74018D01*
G37*
G36*
X89662Y69248D02*
X89662Y74526D01*
X95940Y74526D01*
X95940Y70736D01*
X94452Y69248D01*
X89662Y69248D01*
G37*
G36*
X52360Y69148D02*
X50872Y70636D01*
X50872Y74426D01*
X57150Y74426D01*
X57150Y69148D01*
X52360Y69148D01*
G37*
G36*
X172720Y68994D02*
X172720Y74272D01*
X178998Y74272D01*
X178998Y70482D01*
X177510Y68994D01*
X172720Y68994D01*
G37*
G36*
X166406Y68994D02*
X164918Y70482D01*
X164918Y74272D01*
X171196Y74272D01*
X171196Y68994D01*
X166406Y68994D01*
G37*
G36*
X121920Y68994D02*
X121920Y74272D01*
X128198Y74272D01*
X128198Y70482D01*
X126710Y68994D01*
X121920Y68994D01*
G37*
G36*
X115606Y68994D02*
X114118Y70482D01*
X114118Y74272D01*
X120396Y74272D01*
X120396Y68994D01*
X115606Y68994D01*
G37*
G36*
X519176Y67216D02*
X519176Y72494D01*
X525454Y72494D01*
X525454Y68704D01*
X523966Y67216D01*
X519176Y67216D01*
G37*
G36*
X512862Y67216D02*
X511374Y68704D01*
X511374Y72494D01*
X517652Y72494D01*
X517652Y67216D01*
X512862Y67216D01*
G37*
G36*
X129866Y65428D02*
X129866Y69218D01*
X131354Y70706D01*
X136144Y70706D01*
X136144Y65428D01*
X129866Y65428D01*
G37*
G36*
X137668Y65428D02*
X137668Y70706D01*
X142458Y70706D01*
X143946Y69218D01*
X143946Y65428D01*
X137668Y65428D01*
G37*
G36*
X155702Y65174D02*
X155702Y70452D01*
X160492Y70452D01*
X161980Y68964D01*
X161980Y65174D01*
X155702Y65174D01*
G37*
G36*
X147900Y65174D02*
X147900Y68964D01*
X149388Y70452D01*
X154178Y70452D01*
X154178Y65174D01*
X147900Y65174D01*
G37*
G36*
X137668Y58626D02*
X137668Y63904D01*
X143946Y63904D01*
X143946Y60114D01*
X142458Y58626D01*
X137668Y58626D01*
G37*
G36*
X131354Y58626D02*
X129866Y60114D01*
X129866Y63904D01*
X136144Y63904D01*
X136144Y58626D01*
X131354Y58626D01*
G37*
G36*
X155702Y58372D02*
X155702Y63650D01*
X161980Y63650D01*
X161980Y59860D01*
X160492Y58372D01*
X155702Y58372D01*
G37*
G36*
X149388Y58372D02*
X147900Y59860D01*
X147900Y63650D01*
X154178Y63650D01*
X154178Y58372D01*
X149388Y58372D01*
G37*
G36*
X259992Y47244D02*
X259992Y53522D01*
X263782Y53522D01*
X265270Y52034D01*
X265270Y47244D01*
X259992Y47244D01*
G37*
G36*
X253190Y47244D02*
X253190Y52034D01*
X254678Y53522D01*
X258468Y53522D01*
X258468Y47244D01*
X253190Y47244D01*
G37*
G36*
X395986Y28702D02*
X395986Y37581D01*
X397533Y41315D01*
X400391Y44173D01*
X404125Y45720D01*
X405384Y45720D01*
X405384Y28702D01*
X395986Y28702D01*
G37*
G36*
X259992Y39442D02*
X259992Y45720D01*
X265270Y45720D01*
X265270Y40930D01*
X263782Y39442D01*
X259992Y39442D01*
G37*
G36*
X254678Y39442D02*
X253190Y40930D01*
X253190Y45720D01*
X258468Y45720D01*
X258468Y39442D01*
X254678Y39442D01*
G37*
G36*
X406908Y28702D02*
X406908Y45720D01*
X408167Y45720D01*
X411901Y44173D01*
X414759Y41315D01*
X416306Y37581D01*
X416306Y28702D01*
X406908Y28702D01*
G37*
G36*
X319278Y36172D02*
X319278Y41450D01*
X324068Y41450D01*
X325556Y39962D01*
X325556Y36172D01*
X319278Y36172D01*
G37*
G36*
X303784Y36172D02*
X303784Y41450D01*
X308574Y41450D01*
X310062Y39962D01*
X310062Y36172D01*
X303784Y36172D01*
G37*
G36*
X295982Y36172D02*
X295982Y39962D01*
X297470Y41450D01*
X302260Y41450D01*
X302260Y36172D01*
X295982Y36172D01*
G37*
G36*
X311476Y36172D02*
X311476Y39962D01*
X312964Y41450D01*
X317754Y41450D01*
X317754Y36172D01*
X311476Y36172D01*
G37*
G36*
X319278Y29370D02*
X319278Y34648D01*
X325556Y34648D01*
X325556Y30858D01*
X324068Y29370D01*
X319278Y29370D01*
G37*
G36*
X297470Y29370D02*
X295982Y30858D01*
X295982Y34648D01*
X302260Y34648D01*
X302260Y29370D01*
X297470Y29370D01*
G37*
G36*
X303784Y29370D02*
X303784Y34648D01*
X310062Y34648D01*
X310062Y30858D01*
X308574Y29370D01*
X303784Y29370D01*
G37*
G36*
X312964Y29370D02*
X311476Y30858D01*
X311476Y34648D01*
X317754Y34648D01*
X317754Y29370D01*
X312964Y29370D01*
G37*
G36*
X366522Y21186D02*
X366522Y26464D01*
X371312Y26464D01*
X372800Y24976D01*
X372800Y21186D01*
X366522Y21186D01*
G37*
G36*
X358720Y21186D02*
X358720Y24976D01*
X360208Y26464D01*
X364998Y26464D01*
X364998Y21186D01*
X358720Y21186D01*
G37*
G36*
X342972Y21092D02*
X342972Y24882D01*
X344460Y26370D01*
X349250Y26370D01*
X349250Y21092D01*
X342972Y21092D01*
G37*
G36*
X350774Y21092D02*
X350774Y26370D01*
X355564Y26370D01*
X357052Y24882D01*
X357052Y21092D01*
X350774Y21092D01*
G37*
G36*
X180594Y13368D02*
X180594Y25448D01*
X185384Y25448D01*
X186421Y24412D01*
X186547Y24328D01*
X186696Y24300D01*
X186844Y24333D01*
X186959Y24412D01*
X188504Y25956D01*
X193294Y25956D01*
X193294Y13876D01*
X188504Y13876D01*
X187467Y14913D01*
X187341Y14996D01*
X187192Y15024D01*
X187044Y14992D01*
X186929Y14913D01*
X185384Y13368D01*
X180594Y13368D01*
G37*
G36*
X194818Y20678D02*
X194818Y25956D01*
X199608Y25956D01*
X201096Y24468D01*
X201096Y20678D01*
X194818Y20678D01*
G37*
G36*
X306784Y19558D02*
X306784Y24348D01*
X308272Y25836D01*
X312062Y25836D01*
X312062Y19558D01*
X306784Y19558D01*
G37*
G36*
X313586Y19558D02*
X313586Y25836D01*
X317376Y25836D01*
X318864Y24348D01*
X318864Y19558D01*
X313586Y19558D01*
G37*
G36*
X172792Y20170D02*
X172792Y23960D01*
X174280Y25448D01*
X179070Y25448D01*
X179070Y20170D01*
X172792Y20170D01*
G37*
G36*
X267904Y20170D02*
X267904Y25448D01*
X272694Y25448D01*
X274182Y23960D01*
X274182Y20170D01*
X267904Y20170D01*
G37*
G36*
X228920Y13114D02*
X228920Y25194D01*
X233710Y25194D01*
X234841Y24064D01*
X234967Y23980D01*
X235116Y23952D01*
X235264Y23985D01*
X235379Y24064D01*
X236510Y25194D01*
X241300Y25194D01*
X241300Y13114D01*
X236510Y13114D01*
X235379Y14245D01*
X235253Y14328D01*
X235104Y14356D01*
X234956Y14324D01*
X234841Y14245D01*
X233710Y13114D01*
X228920Y13114D01*
G37*
G36*
X221118Y19916D02*
X221118Y23706D01*
X222606Y25194D01*
X227396Y25194D01*
X227396Y19916D01*
X221118Y19916D01*
G37*
G36*
X366522Y14384D02*
X366522Y19662D01*
X372800Y19662D01*
X372800Y15872D01*
X371312Y14384D01*
X366522Y14384D01*
G37*
G36*
X360208Y14384D02*
X358720Y15872D01*
X358720Y19662D01*
X364998Y19662D01*
X364998Y14384D01*
X360208Y14384D01*
G37*
G36*
X350774Y14290D02*
X350774Y19568D01*
X357052Y19568D01*
X357052Y15778D01*
X355564Y14290D01*
X350774Y14290D01*
G37*
G36*
X344460Y14290D02*
X342972Y15778D01*
X342972Y19568D01*
X349250Y19568D01*
X349250Y14290D01*
X344460Y14290D01*
G37*
G36*
X194818Y13876D02*
X194818Y19154D01*
X201096Y19154D01*
X201096Y15364D01*
X199608Y13876D01*
X194818Y13876D01*
G37*
G36*
X267904Y13368D02*
X267904Y18646D01*
X274182Y18646D01*
X274182Y14856D01*
X272694Y13368D01*
X267904Y13368D01*
G37*
G36*
X174280Y13368D02*
X172792Y14856D01*
X172792Y18646D01*
X179070Y18646D01*
X179070Y13368D01*
X174280Y13368D01*
G37*
G36*
X222606Y13114D02*
X221118Y14602D01*
X221118Y18392D01*
X227396Y18392D01*
X227396Y13114D01*
X222606Y13114D01*
G37*
G36*
X313586Y11756D02*
X313586Y18034D01*
X318864Y18034D01*
X318864Y13244D01*
X317376Y11756D01*
X313586Y11756D01*
G37*
G36*
X308272Y11756D02*
X306784Y13244D01*
X306784Y18034D01*
X312062Y18034D01*
X312062Y11756D01*
X308272Y11756D01*
G37*
%LPD*%
G36*
X260112Y111140D02*
X260237Y111226D01*
X260318Y111354D01*
X260344Y111491D01*
X260344Y124719D01*
X267930Y132305D01*
X268014Y132431D01*
X268042Y132574D01*
X268042Y139530D01*
X269530Y141018D01*
X280634Y141018D01*
X282214Y139438D01*
X282238Y139403D01*
X282366Y139322D01*
X282503Y139296D01*
X286645Y139296D01*
X286794Y139326D01*
X286919Y139412D01*
X286938Y139442D01*
X288514Y141018D01*
X299618Y141018D01*
X301198Y139438D01*
X301222Y139403D01*
X301350Y139322D01*
X301487Y139296D01*
X305507Y139296D01*
X305656Y139326D01*
X305781Y139412D01*
X305862Y139540D01*
X305888Y139677D01*
X305888Y139784D01*
X307376Y141272D01*
X317655Y141272D01*
X317804Y141302D01*
X317929Y141388D01*
X318010Y141516D01*
X318036Y141653D01*
X318036Y141811D01*
X318006Y141960D01*
X317920Y142085D01*
X317792Y142166D01*
X317655Y142192D01*
X313690Y142192D01*
X313690Y147470D01*
X319968Y147470D01*
X319968Y146948D01*
X319998Y146800D01*
X320084Y146675D01*
X320212Y146593D01*
X320361Y146568D01*
X320509Y146603D01*
X320618Y146679D01*
X320777Y146838D01*
X323101Y147800D01*
X325616Y147800D01*
X327939Y146838D01*
X329718Y145059D01*
X330680Y142736D01*
X330680Y140690D01*
X330710Y140541D01*
X330796Y140416D01*
X330924Y140334D01*
X331073Y140309D01*
X331221Y140344D01*
X331330Y140420D01*
X332882Y141972D01*
X332966Y142099D01*
X332994Y142242D01*
X332994Y149733D01*
X332964Y149882D01*
X332882Y150003D01*
X321222Y161664D01*
X321095Y161747D01*
X320946Y161775D01*
X320798Y161743D01*
X320683Y161664D01*
X318048Y159029D01*
X314314Y157482D01*
X310272Y157482D01*
X306538Y159029D01*
X303680Y161887D01*
X302133Y165621D01*
X302133Y184903D01*
X303680Y188637D01*
X304894Y189852D01*
X304978Y189978D01*
X305006Y190127D01*
X304973Y190275D01*
X304885Y190399D01*
X304756Y190479D01*
X304625Y190502D01*
X294561Y190502D01*
X294413Y190472D01*
X294288Y190386D01*
X294206Y190258D01*
X294180Y190109D01*
X294215Y189961D01*
X294292Y189852D01*
X295506Y188637D01*
X297053Y184903D01*
X297053Y165621D01*
X295506Y161887D01*
X292648Y159029D01*
X288914Y157482D01*
X284872Y157482D01*
X281138Y159029D01*
X278280Y161887D01*
X276733Y165621D01*
X276733Y169543D01*
X276703Y169692D01*
X276617Y169817D01*
X276489Y169899D01*
X276340Y169924D01*
X276192Y169889D01*
X276083Y169813D01*
X275702Y169432D01*
X275618Y169305D01*
X275590Y169162D01*
X275590Y161954D01*
X266276Y152640D01*
X266192Y152513D01*
X266164Y152370D01*
X266164Y151524D01*
X265202Y149200D01*
X263423Y147421D01*
X261100Y146459D01*
X258585Y146459D01*
X256261Y147421D01*
X254650Y149032D01*
X254524Y149116D01*
X254375Y149143D01*
X254227Y149111D01*
X254103Y149023D01*
X254023Y148894D01*
X254000Y148763D01*
X254000Y145952D01*
X245912Y137864D01*
X245828Y137737D01*
X245800Y137594D01*
X245800Y136268D01*
X245001Y135469D01*
X244918Y135343D01*
X244890Y135194D01*
X244922Y135046D01*
X245001Y134930D01*
X256272Y123660D01*
X258318Y121614D01*
X258318Y111491D01*
X258348Y111342D01*
X258434Y111217D01*
X258562Y111136D01*
X258699Y111110D01*
X259963Y111110D01*
X260112Y111140D01*
G37*
%LPC*%
G36*
X313690Y148994D02*
X313690Y154272D01*
X318480Y154272D01*
X319968Y152784D01*
X319968Y148994D01*
X313690Y148994D01*
G37*
G36*
X305888Y148994D02*
X305888Y152784D01*
X307376Y154272D01*
X312166Y154272D01*
X312166Y148994D01*
X305888Y148994D01*
G37*
G36*
X268042Y148740D02*
X268042Y152530D01*
X269530Y154018D01*
X274320Y154018D01*
X274320Y148740D01*
X268042Y148740D01*
G37*
G36*
X275844Y148740D02*
X275844Y154018D01*
X280634Y154018D01*
X282122Y152530D01*
X282122Y148740D01*
X275844Y148740D01*
G37*
G36*
X294828Y148740D02*
X294828Y154018D01*
X299618Y154018D01*
X301106Y152530D01*
X301106Y148740D01*
X294828Y148740D01*
G37*
G36*
X287026Y148740D02*
X287026Y152530D01*
X288514Y154018D01*
X293304Y154018D01*
X293304Y148740D01*
X287026Y148740D01*
G37*
G36*
X307376Y142192D02*
X305888Y143680D01*
X305888Y147470D01*
X312166Y147470D01*
X312166Y142192D01*
X307376Y142192D01*
G37*
G36*
X294828Y141938D02*
X294828Y147216D01*
X301106Y147216D01*
X301106Y143426D01*
X299618Y141938D01*
X294828Y141938D01*
G37*
G36*
X288514Y141938D02*
X287026Y143426D01*
X287026Y147216D01*
X293304Y147216D01*
X293304Y141938D01*
X288514Y141938D01*
G37*
G36*
X275844Y141938D02*
X275844Y147216D01*
X282122Y147216D01*
X282122Y143426D01*
X280634Y141938D01*
X275844Y141938D01*
G37*
G36*
X269530Y141938D02*
X268042Y143426D01*
X268042Y147216D01*
X274320Y147216D01*
X274320Y141938D01*
X269530Y141938D01*
G37*
%LPD*%
G36*
X35355Y106358D02*
X35476Y106440D01*
X35524Y106487D01*
X35607Y106614D01*
X35635Y106763D01*
X35606Y106903D01*
X35588Y106946D01*
X35588Y109462D01*
X36550Y111785D01*
X38053Y113288D01*
X38137Y113414D01*
X38165Y113563D01*
X38132Y113711D01*
X38053Y113827D01*
X37544Y114336D01*
X37544Y125440D01*
X39032Y126928D01*
X45838Y126928D01*
X45986Y126958D01*
X46111Y127044D01*
X46193Y127172D01*
X46218Y127321D01*
X46183Y127469D01*
X46107Y127578D01*
X45948Y127737D01*
X44986Y130061D01*
X44986Y132576D01*
X45855Y134673D01*
X45884Y134822D01*
X45853Y134970D01*
X45766Y135095D01*
X45637Y135175D01*
X45503Y135200D01*
X36624Y135200D01*
X30622Y141202D01*
X30496Y141285D01*
X30347Y141313D01*
X30199Y141281D01*
X30084Y141202D01*
X23988Y135106D01*
X23904Y134979D01*
X23876Y134836D01*
X23876Y126735D01*
X22464Y125323D01*
X22380Y125197D01*
X22352Y125054D01*
X22352Y114810D01*
X22382Y114661D01*
X22468Y114536D01*
X22596Y114454D01*
X22745Y114429D01*
X22893Y114464D01*
X23002Y114540D01*
X24432Y115970D01*
X24516Y116097D01*
X24544Y116240D01*
X24544Y125440D01*
X26032Y126928D01*
X35136Y126928D01*
X36624Y125440D01*
X36624Y114336D01*
X35136Y112848D01*
X30808Y112848D01*
X30659Y112818D01*
X30538Y112736D01*
X26528Y108726D01*
X26444Y108599D01*
X26416Y108456D01*
X26416Y108147D01*
X26446Y107998D01*
X26532Y107873D01*
X26660Y107792D01*
X26797Y107766D01*
X30166Y107766D01*
X31493Y106440D01*
X31619Y106356D01*
X31762Y106328D01*
X35206Y106328D01*
X35355Y106358D01*
G37*
G36*
X201201Y77126D02*
X201310Y77202D01*
X211231Y87123D01*
X211315Y87249D01*
X211343Y87398D01*
X211310Y87546D01*
X211222Y87670D01*
X211107Y87744D01*
X209808Y88282D01*
X208170Y89920D01*
X207284Y92060D01*
X207284Y92242D01*
X207254Y92390D01*
X207168Y92515D01*
X207040Y92597D01*
X206903Y92623D01*
X206543Y92623D01*
X206395Y92592D01*
X206274Y92511D01*
X206042Y92279D01*
X205790Y92279D01*
X205641Y92249D01*
X205516Y92163D01*
X205434Y92036D01*
X205409Y91898D01*
X205409Y91646D01*
X205177Y91414D01*
X205093Y91288D01*
X205065Y91145D01*
X205065Y90882D01*
X200772Y86588D01*
X200688Y86462D01*
X200660Y86319D01*
X200660Y77472D01*
X200690Y77323D01*
X200776Y77198D01*
X200904Y77116D01*
X201053Y77091D01*
X201201Y77126D01*
G37*
G36*
X311244Y50830D02*
X311369Y50916D01*
X311450Y51044D01*
X311476Y51181D01*
X311476Y52962D01*
X312964Y54450D01*
X314833Y54450D01*
X314982Y54480D01*
X315107Y54566D01*
X315188Y54694D01*
X315214Y54831D01*
X315214Y59534D01*
X321452Y65772D01*
X321536Y65899D01*
X321564Y66042D01*
X321564Y70505D01*
X321534Y70654D01*
X321448Y70779D01*
X321320Y70860D01*
X321171Y70886D01*
X321023Y70851D01*
X320914Y70774D01*
X320268Y70129D01*
X317945Y69167D01*
X315744Y69167D01*
X315595Y69137D01*
X315470Y69051D01*
X315389Y68923D01*
X315363Y68774D01*
X315392Y68640D01*
X315948Y67298D01*
X315948Y64783D01*
X314986Y62459D01*
X313207Y60680D01*
X310884Y59718D01*
X308369Y59718D01*
X306045Y60680D01*
X304266Y62459D01*
X303304Y64783D01*
X303304Y66929D01*
X303274Y67078D01*
X303188Y67203D01*
X303060Y67284D01*
X302923Y67310D01*
X283163Y67310D01*
X283014Y67280D01*
X282889Y67194D01*
X282807Y67066D01*
X282782Y66917D01*
X282817Y66769D01*
X282893Y66660D01*
X296017Y53536D01*
X296143Y53452D01*
X296292Y53424D01*
X296441Y53457D01*
X296556Y53536D01*
X297470Y54450D01*
X308574Y54450D01*
X310062Y52962D01*
X310062Y51181D01*
X310092Y51032D01*
X310178Y50907D01*
X310306Y50826D01*
X310443Y50800D01*
X311095Y50800D01*
X311244Y50830D01*
G37*
D10*
X275082Y134978D03*
X275082Y147978D03*
D11*
X299824Y18796D03*
X312824Y18796D03*
D10*
X267142Y32408D03*
X267142Y19408D03*
X242062Y32154D03*
X242062Y19154D03*
X228158Y32154D03*
X228158Y19154D03*
X121158Y88034D03*
X121158Y75034D03*
X171958Y88034D03*
X171958Y75034D03*
D11*
X139804Y87884D03*
X152804Y87884D03*
D10*
X88900Y88288D03*
X88900Y75288D03*
X57912Y88188D03*
X57912Y75188D03*
D11*
X66746Y54356D03*
X79746Y54356D03*
D10*
X294066Y134978D03*
X294066Y147978D03*
D11*
X83208Y115316D03*
X70208Y115316D03*
D10*
X118110Y115166D03*
X118110Y128166D03*
X154940Y51412D03*
X154940Y64412D03*
X136906Y51666D03*
X136906Y64666D03*
X518414Y86256D03*
X518414Y73256D03*
D11*
X517756Y107696D03*
X530756Y107696D03*
X557380Y107696D03*
X570380Y107696D03*
D10*
X312928Y135232D03*
X312928Y148232D03*
D11*
X193444Y118364D03*
X180444Y118364D03*
D10*
X224376Y141074D03*
X224376Y154074D03*
X303022Y48410D03*
X303022Y35410D03*
D11*
X246230Y46482D03*
X259230Y46482D03*
D10*
X194056Y32916D03*
X194056Y19916D03*
X179832Y32408D03*
X179832Y19408D03*
D12*
X479980Y107696D03*
X474980Y104826D03*
X474980Y110566D03*
X469980Y110566D03*
X469980Y104826D03*
D13*
X406146Y35560D02*
X406146Y20320D01*
X431546Y20320D02*
X431546Y35560D01*
X261493Y167642D02*
X261493Y182882D01*
X286893Y182882D02*
X286893Y167642D01*
X312293Y167642D02*
X312293Y182882D01*
D14*
X23114Y25400D03*
D15*
G36*
X202516Y97294D02*
X204284Y99062D01*
X206758Y96588D01*
X204990Y94820D01*
X202516Y97294D01*
G37*
G36*
X198626Y93404D02*
X200394Y95172D01*
X202868Y92698D01*
X201100Y90930D01*
X198626Y93404D01*
G37*
G36*
X182196Y66976D02*
X183964Y68744D01*
X186438Y66270D01*
X184670Y64502D01*
X182196Y66976D01*
G37*
G36*
X178306Y63086D02*
X180074Y64854D01*
X182548Y62380D01*
X180780Y60612D01*
X178306Y63086D01*
G37*
X107398Y88138D03*
X101898Y88138D03*
X75902Y88138D03*
X70402Y88138D03*
X157436Y107188D03*
X151936Y107188D03*
X500082Y107696D03*
X494582Y107696D03*
D16*
X570230Y89872D03*
X570230Y84372D03*
D17*
X490220Y150876D03*
X511810Y150876D03*
X533400Y150876D03*
D18*
X62738Y146122D03*
X41148Y146122D03*
X19558Y146122D03*
D10*
X299212Y108100D03*
X299212Y95100D03*
X318516Y35410D03*
X318516Y48410D03*
X313800Y108122D03*
X313800Y95122D03*
D11*
X30584Y119888D03*
X43584Y119888D03*
D10*
X468790Y149618D03*
X468790Y162618D03*
X238760Y140820D03*
X238760Y153820D03*
D19*
X360732Y78538D03*
X360732Y143458D03*
X425652Y143458D03*
X425652Y78538D03*
D20*
X426922Y104648D03*
X426922Y130048D03*
X359462Y130048D03*
X359462Y117348D03*
X359462Y104648D03*
X359462Y91948D03*
D21*
X399542Y77268D03*
X412242Y77268D03*
X374142Y77268D03*
X374142Y144728D03*
X386842Y144728D03*
X399542Y144728D03*
X412242Y144728D03*
D22*
X393192Y110998D03*
D23*
X386842Y77768D03*
D24*
X426422Y117348D03*
D25*
X425827Y91948D03*
D26*
X393192Y110998D03*
X377192Y126998D03*
X409192Y126998D03*
X409192Y94998D03*
X377192Y94998D03*
X393192Y94998D03*
X409192Y110998D03*
X393192Y126998D03*
X377192Y110998D03*
D27*
X32414Y88726D03*
X32414Y93726D03*
X32414Y98726D03*
X13814Y98726D03*
X13814Y93726D03*
X13814Y88726D03*
D28*
X28114Y103026D03*
X23114Y103026D03*
X18114Y103026D03*
X18114Y84426D03*
X23114Y84426D03*
X28114Y84426D03*
D29*
X23114Y93726D03*
D30*
X225662Y106570D03*
X232162Y106570D03*
X238662Y106570D03*
X245162Y106570D03*
X251662Y106570D03*
X258162Y106570D03*
X264662Y106570D03*
X271162Y106570D03*
X225662Y100070D03*
X232162Y100070D03*
X238662Y100070D03*
X245162Y100070D03*
X251662Y100070D03*
X258162Y100070D03*
X264662Y100070D03*
X271162Y100070D03*
X225662Y93570D03*
X232162Y93570D03*
X238662Y93570D03*
X245162Y93570D03*
X251662Y93570D03*
X258162Y93570D03*
X264662Y93570D03*
X271162Y93570D03*
X225662Y87070D03*
X232162Y87070D03*
X238662Y87070D03*
X245162Y87070D03*
X251662Y87070D03*
X258162Y87070D03*
X264662Y87070D03*
X271162Y87070D03*
X225662Y80570D03*
X232162Y80570D03*
X238662Y80570D03*
X245162Y80570D03*
X251662Y80570D03*
X258162Y80570D03*
X264662Y80570D03*
X271162Y80570D03*
X225662Y74070D03*
X232162Y74070D03*
X238662Y74070D03*
X245162Y74070D03*
X251662Y74070D03*
X258162Y74070D03*
X264662Y74070D03*
X271162Y74070D03*
X225662Y67570D03*
X232162Y67570D03*
X238662Y67570D03*
X245162Y67570D03*
X251662Y67570D03*
X258162Y67570D03*
X264662Y67570D03*
X271162Y67570D03*
X225662Y61070D03*
X232162Y61070D03*
X238662Y61070D03*
X245162Y61070D03*
X251662Y61070D03*
X258162Y61070D03*
X264662Y61070D03*
X271162Y61070D03*
D31*
X613664Y138284D03*
X613664Y88284D03*
D32*
X598414Y108034D03*
D10*
X350012Y33330D03*
X350012Y20330D03*
X365760Y33424D03*
X365760Y20424D03*
D33*
X251662Y114352D02*
X224940Y141074D01*
X224376Y141074D01*
X251662Y114352D02*
X251662Y106570D01*
X194056Y32131D02*
X181356Y32131D01*
X179832Y32408D01*
X194056Y32131D02*
X194056Y32916D01*
X194056Y32131D02*
X197127Y32131D01*
X222542Y57546D01*
D34*
X228638Y57546D01*
X232162Y61070D01*
D33*
X245162Y47550D02*
X246230Y46482D01*
X245162Y47550D02*
X245162Y61070D01*
D34*
X240595Y74015D02*
X238717Y74015D01*
X238662Y74070D01*
X240595Y74015D02*
X243897Y70713D01*
X274170Y70713D01*
D33*
X304419Y47498D02*
X316992Y47498D01*
X318516Y48410D01*
X304419Y47498D02*
X303022Y48410D01*
X296776Y48107D02*
X274170Y70713D01*
X302719Y48107D02*
X303022Y48410D01*
X302719Y48107D02*
X296776Y48107D01*
X313800Y108122D02*
X324866Y108122D01*
X324866Y64516D01*
X318516Y58166D01*
X318516Y48410D01*
D34*
X254912Y64320D02*
X251662Y67570D01*
X261412Y64320D02*
X264662Y67570D01*
X258162Y67570D02*
X258162Y64320D01*
X261412Y64320D01*
X258162Y64320D02*
X254912Y64320D01*
X232162Y74070D02*
X232162Y80010D01*
X232162Y80570D01*
X232162Y74070D02*
X232162Y67570D01*
X238662Y100070D02*
X235412Y103320D01*
X232162Y100070D01*
X235412Y103320D02*
X235412Y110582D01*
X248412Y103320D02*
X251662Y100070D01*
X248412Y96820D01*
X248412Y111090D02*
X246634Y112868D01*
X248412Y111090D02*
X248412Y103320D01*
X261519Y90427D02*
X258162Y87070D01*
X265964Y90427D02*
X267805Y92268D01*
X265964Y90427D02*
X261519Y90427D01*
X267805Y92268D02*
X267805Y96927D01*
X264662Y100070D01*
X248412Y96820D02*
X248412Y90420D01*
X248519Y90681D02*
X245162Y87324D01*
X245162Y87070D01*
X232162Y67570D02*
X232162Y67310D01*
D33*
X22225Y92075D02*
X19050Y88900D01*
X15875Y88900D01*
X22225Y92075D02*
X23114Y93726D01*
X15875Y88900D02*
X13814Y88726D01*
X232162Y67310D02*
X238402Y67310D01*
D34*
X259230Y57693D02*
X259230Y46482D01*
X259230Y57693D02*
X261305Y59768D01*
X261305Y64213D02*
X261412Y64320D01*
X261305Y64213D02*
X261305Y59768D01*
X264662Y67570D02*
X265193Y67570D01*
X275425Y64427D02*
X275844Y64008D01*
X268336Y64427D02*
X265193Y67570D01*
X268336Y64427D02*
X275425Y64427D01*
X228805Y66268D02*
X226964Y64427D01*
X220980Y64427D01*
X228805Y70713D02*
X232162Y74070D01*
X228805Y70713D02*
X228805Y66268D01*
D35*
X98362Y21114D03*
X469138Y89980D03*
X485140Y89980D03*
X500507Y93218D03*
X520319Y23114D03*
X535178Y90805D03*
X553974Y90805D03*
X582930Y90805D03*
X623443Y23114D03*
X623443Y179959D03*
X582422Y124206D03*
X566166Y124206D03*
X549910Y124206D03*
X500507Y121158D03*
X485140Y125794D03*
X469138Y125794D03*
X449453Y179959D03*
X336296Y179959D03*
X299720Y160909D03*
X210820Y179959D03*
X462153Y23114D03*
X148844Y21114D03*
X149437Y179959D03*
X87291Y179959D03*
X25146Y179959D03*
X98298Y131064D03*
X136652Y131064D03*
X163576Y120015D03*
X100711Y101473D03*
X93694Y48387D03*
X39624Y69596D03*
X39624Y53763D03*
X47879Y37931D03*
X47879Y21114D03*
X273812Y45720D03*
X332740Y20447D03*
X210820Y143637D03*
X450977Y125794D03*
X450977Y89980D03*
X391033Y52451D03*
X186944Y98679D03*
X205994Y86360D03*
D36*
X225662Y80570D02*
X231602Y80570D01*
X232162Y80010D01*
D33*
X232162Y106570D02*
X235412Y109820D01*
X235412Y110582D01*
D35*
X210566Y15669D03*
X259334Y138938D03*
X293370Y63246D03*
D34*
X258107Y87070D02*
X256107Y87070D01*
X252750Y90427D01*
X248376Y90427D01*
D35*
X179126Y45847D03*
D33*
X13814Y88726D02*
X13814Y93726D01*
X13814Y98726D01*
D35*
X148336Y120015D03*
X161290Y98679D03*
X126492Y101473D03*
X113602Y101473D03*
X87821Y101473D03*
X74930Y101473D03*
X104394Y75692D03*
X93694Y61087D03*
X121412Y61087D03*
X121412Y48387D03*
X146050Y75946D03*
X80772Y131064D03*
X30480Y131318D03*
X167640Y63754D03*
D33*
X313778Y95100D02*
X313800Y95122D01*
D35*
X227076Y167767D03*
D33*
X467298Y151132D02*
X468790Y149618D01*
D37*
X54864Y119888D02*
X43584Y119888D01*
X54864Y119888D02*
X62738Y127762D01*
X62738Y146122D01*
X238506Y154074D02*
X238760Y153820D01*
X299234Y95122D02*
X313800Y95122D01*
X299234Y95122D02*
X299212Y95100D01*
X468790Y149618D02*
X470048Y150876D01*
X490220Y150876D01*
D34*
X232162Y93570D02*
X228854Y96878D01*
X228854Y110744D01*
D37*
X193952Y118872D02*
X193444Y118364D01*
X221234Y118364D01*
X228854Y110744D01*
D35*
X287020Y103322D03*
D37*
X298544Y95100D02*
X299212Y95100D01*
X298544Y95100D02*
X290322Y103322D01*
X287020Y103322D01*
D35*
X216408Y38862D03*
D33*
X294066Y134978D02*
X294893Y135993D01*
X266186Y108094D02*
X264662Y106570D01*
X312674Y134978D02*
X312928Y135232D01*
D37*
X233553Y167767D02*
X227076Y167767D01*
X233553Y167767D02*
X238760Y162560D01*
X238760Y153820D01*
D35*
X287020Y118364D03*
D33*
X289814Y121158D01*
D34*
X245162Y67570D02*
X244400Y67570D01*
X237360Y64213D02*
X235519Y62372D01*
X241043Y64213D02*
X244400Y67570D01*
X241043Y64213D02*
X237360Y64213D01*
X235519Y62372D02*
X235519Y58689D01*
D33*
X216408Y39578D02*
X216408Y38862D01*
D37*
X264662Y106570D02*
X264662Y122930D01*
X275082Y133350D01*
X275082Y134978D01*
X284226Y134978D01*
X294066Y134978D01*
X303784Y134978D01*
X312674Y134978D01*
X292354Y123698D02*
X287020Y118364D01*
X292354Y123698D02*
X298958Y123698D01*
X303784Y128524D01*
X303784Y134978D01*
X271162Y117238D02*
X271162Y106570D01*
X271162Y117238D02*
X284226Y130302D01*
X284226Y134978D01*
D35*
X324358Y141478D03*
D37*
X318112Y135232D01*
X312928Y135232D01*
D35*
X193802Y132080D03*
D37*
X193952Y131930D01*
X193952Y118872D01*
D33*
X271924Y61070D02*
X289814Y43180D01*
X289814Y40282D01*
X271924Y61070D02*
X271162Y61070D01*
X225564Y93472D02*
X213360Y93472D01*
X213106Y93218D01*
D38*
X213106Y93218D03*
X208534Y26289D03*
D33*
X228092Y44849D02*
X238662Y55419D01*
X238662Y61070D01*
X230632Y34036D02*
X228219Y31623D01*
X263525Y31877D02*
X266700Y31877D01*
X267142Y32408D01*
X267260Y32385D01*
X267142Y32408D02*
X263525Y31877D01*
X244094Y31623D02*
X242062Y32154D01*
D35*
X284226Y18796D03*
X254508Y19812D03*
D37*
X289814Y28806D02*
X289814Y40282D01*
X289814Y28806D02*
X299824Y18796D01*
X284226Y18796D01*
X228092Y32220D02*
X228092Y44849D01*
X228092Y32220D02*
X228158Y32154D01*
X242062Y32154D01*
X254508Y32154D01*
X266888Y32154D01*
X267142Y32408D01*
X254508Y32154D02*
X254508Y19812D01*
X216281Y26289D02*
X208534Y26289D01*
X216281Y26289D02*
X221615Y31623D01*
X228219Y31623D01*
D33*
X231694Y54864D02*
X235519Y58689D01*
X231694Y54864D02*
X226822Y54864D01*
X216408Y44450D01*
X216408Y38862D01*
D34*
X261370Y103378D02*
X273604Y103378D01*
X261370Y103378D02*
X259995Y102003D01*
X259995Y101903D01*
X258162Y100070D01*
D33*
X273604Y103378D02*
X274574Y103378D01*
X281686Y110490D01*
X296822Y110490D01*
X310134Y121666D02*
X317246Y121666D01*
X336296Y140716D01*
X336296Y151259D01*
X312293Y175262D01*
X310134Y121666D02*
X299212Y110744D01*
X299212Y108100D01*
X296822Y110490D01*
X171958Y88034D02*
X171831Y88011D01*
X171958Y88034D02*
X172465Y88541D01*
X200704Y92627D02*
X200747Y93051D01*
D37*
X171808Y87884D02*
X152804Y87884D01*
X171808Y87884D02*
X172465Y88541D01*
X172189Y88265D02*
X171958Y88034D01*
X172189Y88265D02*
X196342Y88265D01*
X200747Y92670D01*
X200747Y93051D01*
X196342Y78648D02*
X184317Y66623D01*
X196342Y78648D02*
X196342Y88265D01*
D33*
X107442Y87757D02*
X107398Y88138D01*
X121158Y88034D02*
X121337Y88011D01*
D37*
X121054Y88138D02*
X107398Y88138D01*
X121054Y88138D02*
X121158Y88034D01*
X121464Y87884D02*
X139804Y87884D01*
X121464Y87884D02*
X121337Y88011D01*
D33*
X75902Y88138D02*
X75692Y87757D01*
X101092Y87757D02*
X101898Y88138D01*
X91567Y87757D02*
X88900Y88288D01*
X88392Y87757D01*
X88369Y87757D02*
X88900Y88288D01*
X88392Y87757D02*
X85217Y87757D01*
D37*
X88750Y88138D02*
X75902Y88138D01*
X88750Y88138D02*
X88900Y88288D01*
X100561Y88288D01*
X101092Y87757D01*
X79746Y82286D02*
X79746Y54356D01*
X79746Y82286D02*
X85217Y87757D01*
D33*
X32952Y88188D02*
X32414Y88726D01*
X57912Y88188D02*
X57962Y88138D01*
D37*
X57912Y88188D02*
X32952Y88188D01*
X57912Y88188D02*
X60706Y88188D01*
X70352Y88188D01*
X70402Y88138D01*
X66746Y82148D02*
X66746Y54356D01*
X66746Y82148D02*
X60706Y88188D01*
D33*
X117475Y114300D02*
X118110Y115166D01*
X85725Y114300D02*
X83208Y115316D01*
X151936Y107188D02*
X152400Y107950D01*
X120650Y114300D02*
X118110Y115166D01*
D37*
X117960Y115316D02*
X83208Y115316D01*
X117960Y115316D02*
X118110Y115166D01*
X130452Y115166D01*
X138430Y107188D01*
X151936Y107188D01*
X46402Y98726D02*
X32414Y98726D01*
X46402Y98726D02*
X62992Y115316D01*
X70208Y115316D01*
D33*
X30584Y117452D02*
X30584Y119888D01*
X30584Y117452D02*
X23114Y109982D01*
X23114Y103026D01*
D37*
X19558Y128524D02*
X19558Y146122D01*
X19558Y128524D02*
X18034Y127000D01*
X18034Y103106D01*
X18114Y103026D01*
D33*
X224914Y100818D02*
X225662Y100070D01*
X205272Y96941D02*
X204637Y96941D01*
D37*
X208401Y100070D02*
X225662Y100070D01*
X208401Y100070D02*
X205272Y96941D01*
D35*
X533654Y125730D03*
X383286Y33020D03*
D37*
X533400Y150876D02*
X533654Y150622D01*
X533654Y125730D01*
X348996Y91948D02*
X346202Y89154D01*
X348996Y91948D02*
X359462Y91948D01*
X346202Y89154D02*
X346202Y37140D01*
X350012Y33330D01*
X350106Y33424D01*
X365760Y33424D01*
X382882Y33424D01*
X383286Y33020D01*
D33*
X278895Y87070D02*
X271162Y87070D01*
D35*
X306324Y82296D03*
D33*
X283669Y82296D01*
X278895Y87070D01*
D35*
X511810Y131826D03*
D33*
X511810Y150876D01*
D37*
X468790Y162618D02*
X406204Y162618D01*
X399542Y155956D01*
X399542Y144728D01*
D33*
X469900Y104775D02*
X469980Y104826D01*
X428625Y104775D02*
X426922Y104648D01*
D37*
X469802Y104648D01*
X469980Y104826D01*
D33*
X154813Y52705D02*
X154940Y51412D01*
X138938Y52705D02*
X136906Y51666D01*
X154940Y51412D02*
X155092Y51260D01*
X181439Y61722D02*
X203200Y61722D01*
X181439Y61722D02*
X180427Y62733D01*
X155394Y51562D02*
X155294Y51462D01*
X155092Y51260D01*
X203200Y61722D02*
X215646Y74168D01*
X220743Y87070D02*
X225662Y87070D01*
X220743Y87070D02*
X215646Y81973D01*
X215646Y74168D01*
D37*
X180427Y62733D02*
X169156Y51462D01*
X155294Y51462D01*
X154940Y51412D02*
X154686Y51666D01*
X136906Y51666D01*
D33*
X157436Y107188D02*
X157690Y107442D01*
X224790Y107442D02*
X225662Y106570D01*
D37*
X225044Y107188D02*
X157436Y107188D01*
X225044Y107188D02*
X225662Y106570D01*
D34*
X228912Y90320D02*
X232162Y87070D01*
X228912Y90320D02*
X222412Y90320D01*
D35*
X41910Y108204D03*
X200406Y70612D03*
D33*
X219098Y90320D02*
X222412Y90320D01*
X219098Y90320D02*
X200406Y71628D01*
X200406Y70612D01*
X41910Y108204D02*
X36732Y103026D01*
X28114Y103026D01*
D34*
X235305Y83713D02*
X238662Y87070D01*
D35*
X191262Y49784D03*
D33*
X196931Y49784D02*
X220472Y73325D01*
X196931Y49784D02*
X191262Y49784D01*
D35*
X345948Y158496D03*
D33*
X368300Y158496D01*
X374396Y152400D01*
X374396Y144982D01*
X374142Y144728D01*
X220472Y81534D02*
X220472Y73325D01*
D34*
X220472Y81534D02*
X222651Y83713D01*
X235305Y83713D01*
X245162Y93570D02*
X241912Y96820D01*
X241912Y112014D01*
D35*
X210820Y130048D03*
D33*
X223878Y130048D02*
X241912Y112014D01*
X223878Y130048D02*
X210820Y130048D01*
D35*
X333756Y35814D03*
D33*
X333756Y96012D01*
X342646Y104902D01*
X359208Y104902D01*
X359462Y104648D01*
D34*
X273396Y83927D02*
X269860Y83927D01*
X266717Y87070D02*
X264662Y87070D01*
X266717Y87070D02*
X269860Y83927D01*
D33*
X274920Y82403D02*
X275003Y82403D01*
X274920Y82403D02*
X273396Y83927D01*
D35*
X316687Y75489D03*
X329438Y119126D03*
D33*
X340360Y130048D01*
X359462Y130048D01*
X281686Y75720D02*
X275003Y82403D01*
X281686Y75720D02*
X316456Y75720D01*
X316687Y75489D01*
D35*
X51308Y131318D03*
D33*
X51308Y135962D02*
X41148Y146122D01*
X51308Y135962D02*
X51308Y131318D01*
D35*
X287020Y91186D03*
D33*
X280046Y91186D01*
X271162Y100070D01*
X570230Y89872D02*
X571500Y88900D01*
X571500Y104775D02*
X570380Y107696D01*
X568325Y107950D02*
X571500Y111125D01*
X596900Y107950D02*
X598414Y108034D01*
X570380Y107696D02*
X568325Y107950D01*
D37*
X570230Y107546D02*
X570230Y89872D01*
X570230Y107546D02*
X570380Y107696D01*
X598076Y107696D01*
X598414Y108034D01*
D33*
X557380Y107696D02*
X555625Y107950D01*
X533400Y107950D02*
X530756Y107696D01*
D37*
X557380Y107696D01*
D33*
X517525Y88900D02*
X518414Y86256D01*
X517525Y104775D02*
X517756Y107696D01*
D37*
X500082Y107696D01*
X518414Y107038D02*
X518414Y86256D01*
X518414Y107038D02*
X517756Y107696D01*
D33*
X479980Y107696D02*
X479425Y107950D01*
D37*
X479980Y107696D02*
X494582Y107696D01*
D34*
X254912Y109820D02*
X254912Y96920D01*
X253495Y95503D01*
X253495Y95403D01*
X251662Y93570D01*
D33*
X241300Y139700D02*
X240075Y139505D01*
X238760Y140820D01*
X238760Y136502D02*
X255016Y120246D01*
X238760Y136502D02*
X238760Y140820D01*
X255016Y120246D02*
X255016Y109924D01*
X254912Y109820D01*
X250698Y164467D02*
X261493Y175262D01*
X250698Y164467D02*
X250698Y147320D01*
X244198Y140820D01*
X238760Y140820D01*
D34*
X251662Y87070D02*
X255019Y83713D01*
X255019Y78506D01*
X256098Y77427D01*
X273969Y77427D01*
D35*
X309626Y66040D03*
X259842Y152781D03*
D33*
X276862Y175262D02*
X286893Y175262D01*
X276862Y175262D02*
X272288Y170688D01*
X272288Y163322D01*
X261747Y152781D01*
X259842Y152781D01*
X273969Y77427D02*
X280784Y70612D01*
X305054Y70612D02*
X309626Y66040D01*
X305054Y70612D02*
X280784Y70612D01*
D37*
X23114Y84426D02*
X23114Y25400D01*
M02*
