M48
;GenerationSoftware,Autodesk,EAGLE,9.7.0*%
;CreationDate,2020-11-23T22:45:40Z*%
FMAT,2
ICI,OFF
METRIC,TZ,000.000
T5C0.250
T4C0.350
T3C0.600
T2C0.813
T1C1.016
%
G90
M71
T1
X40615Y2794
X2311Y2540
X31229Y17526
X28689Y17526
X26149Y17526
X43155Y2794
T2
X1956Y14612
X4115Y14612
X6274Y14612
X53340Y15088
X51181Y15088
X49022Y15088
T3
X37719Y11100
X39319Y11100
X37719Y12700
X40919Y12700
X40919Y9500
X37719Y9500
X39319Y9500
X40919Y11100
X39319Y12700
T4
X33376Y3581
X31669Y7549
X32944Y11913
X5131Y13132
X28702Y9119
X30963Y6604
X25984Y15278
X21082Y13005
X34595Y15850
X19126Y4978
X20041Y7061
X4191Y10820
X51181Y13183
X30632Y8230
X38329Y3302
X53365Y12573
X28702Y11836
X21641Y3886
T5
X20853Y2629
X21311Y9322
M30