G04 EAGLE Gerber RS-274X export*
G75*
%MOMM*%
%FSLAX34Y34*%
%LPD*%
%INSilkscreen Bottom*%
%IPPOS*%
%AMOC8*
5,1,8,0,0,1.08239X$1,22.5*%
G01*
G04 Define Apertures*
%ADD10C,0.015238*%
%ADD11C,0.152400*%
D10*
X62679Y129248D02*
X61601Y130097D01*
X61602Y130097D02*
X61988Y130602D01*
X62361Y131117D01*
X62722Y131640D01*
X63070Y132172D01*
X63405Y132713D01*
X63726Y133262D01*
X64034Y133818D01*
X64328Y134381D01*
X64609Y134952D01*
X64875Y135530D01*
X65127Y136113D01*
X65365Y136703D01*
X65588Y137298D01*
X65797Y137899D01*
X65990Y138505D01*
X66169Y139115D01*
X66333Y139729D01*
X66482Y140347D01*
X66616Y140969D01*
X66734Y141594D01*
X66837Y142221D01*
X66925Y142851D01*
X66998Y143482D01*
X67054Y144116D01*
X67096Y144750D01*
X67122Y145385D01*
X67132Y146021D01*
X67126Y146657D01*
X67106Y147293D01*
X67069Y147927D01*
X67017Y148561D01*
X66950Y149193D01*
X66867Y149824D01*
X66769Y150452D01*
X66655Y151077D01*
X66526Y151700D01*
X66382Y152319D01*
X66223Y152935D01*
X66049Y153547D01*
X65860Y154154D01*
X65656Y154756D01*
X65437Y155353D01*
X65204Y155944D01*
X64956Y156530D01*
X64695Y157110D01*
X64419Y157682D01*
X64129Y158248D01*
X63825Y158807D01*
X63508Y159358D01*
X63178Y159901D01*
X62834Y160436D01*
X62477Y160962D01*
X62108Y161480D01*
X61725Y161988D01*
X61331Y162487D01*
X60925Y162976D01*
X60506Y163455D01*
X60076Y163923D01*
X59635Y164381D01*
X59183Y164828D01*
X58720Y165264D01*
X58246Y165688D01*
X57762Y166100D01*
X57269Y166501D01*
X56765Y166889D01*
X56252Y167265D01*
X55730Y167628D01*
X55200Y167979D01*
X54661Y168316D01*
X54114Y168640D01*
X53559Y168950D01*
X52997Y169247D01*
X52427Y169530D01*
X51851Y169799D01*
X51268Y170054D01*
X50680Y170295D01*
X50086Y170521D01*
X49486Y170732D01*
X48881Y170929D01*
X49285Y172239D01*
X49286Y172240D01*
X49922Y172033D01*
X50554Y171810D01*
X51180Y171572D01*
X51800Y171319D01*
X52413Y171051D01*
X53020Y170768D01*
X53619Y170470D01*
X54211Y170157D01*
X54796Y169831D01*
X55372Y169489D01*
X55939Y169134D01*
X56498Y168765D01*
X57048Y168383D01*
X57588Y167987D01*
X58118Y167578D01*
X58638Y167157D01*
X59147Y166722D01*
X59646Y166276D01*
X60134Y165817D01*
X60610Y165347D01*
X61075Y164864D01*
X61527Y164371D01*
X61968Y163867D01*
X62396Y163352D01*
X62811Y162827D01*
X63213Y162292D01*
X63603Y161747D01*
X63978Y161193D01*
X64340Y160630D01*
X64688Y160058D01*
X65022Y159478D01*
X65342Y158889D01*
X65647Y158293D01*
X65938Y157690D01*
X66213Y157080D01*
X66474Y156463D01*
X66719Y155841D01*
X66950Y155212D01*
X67164Y154578D01*
X67364Y153938D01*
X67547Y153295D01*
X67715Y152646D01*
X67866Y151994D01*
X68002Y151339D01*
X68122Y150680D01*
X68225Y150019D01*
X68312Y149355D01*
X68383Y148689D01*
X68438Y148022D01*
X68476Y147353D01*
X68498Y146684D01*
X68504Y146015D01*
X68493Y145345D01*
X68466Y144676D01*
X68422Y144008D01*
X68362Y143341D01*
X68286Y142676D01*
X68194Y142013D01*
X68085Y141352D01*
X67960Y140695D01*
X67819Y140040D01*
X67663Y139389D01*
X67490Y138742D01*
X67301Y138100D01*
X67097Y137462D01*
X66878Y136830D01*
X66642Y136203D01*
X66392Y135582D01*
X66127Y134968D01*
X65846Y134360D01*
X65551Y133759D01*
X65241Y133165D01*
X64917Y132580D01*
X64578Y132002D01*
X64226Y131433D01*
X63859Y130872D01*
X63479Y130321D01*
X63086Y129779D01*
X62679Y129247D01*
X62567Y129336D01*
X62971Y129865D01*
X63363Y130404D01*
X63741Y130952D01*
X64105Y131510D01*
X64456Y132076D01*
X64793Y132651D01*
X65115Y133233D01*
X65423Y133824D01*
X65717Y134421D01*
X65996Y135026D01*
X66260Y135638D01*
X66509Y136255D01*
X66743Y136879D01*
X66962Y137508D01*
X67165Y138142D01*
X67352Y138781D01*
X67524Y139425D01*
X67680Y140072D01*
X67820Y140723D01*
X67944Y141378D01*
X68052Y142035D01*
X68144Y142694D01*
X68220Y143356D01*
X68280Y144019D01*
X68323Y144684D01*
X68350Y145349D01*
X68361Y146015D01*
X68355Y146681D01*
X68333Y147347D01*
X68295Y148012D01*
X68241Y148676D01*
X68170Y149338D01*
X68084Y149998D01*
X67981Y150656D01*
X67862Y151311D01*
X67727Y151964D01*
X67576Y152612D01*
X67409Y153257D01*
X67226Y153898D01*
X67028Y154533D01*
X66815Y155164D01*
X66586Y155790D01*
X66342Y156409D01*
X66082Y157023D01*
X65808Y157630D01*
X65519Y158230D01*
X65216Y158822D01*
X64897Y159408D01*
X64565Y159985D01*
X64219Y160554D01*
X63859Y161114D01*
X63485Y161665D01*
X63098Y162207D01*
X62698Y162740D01*
X62285Y163262D01*
X61859Y163774D01*
X61421Y164276D01*
X60971Y164766D01*
X60508Y165246D01*
X60035Y165714D01*
X59549Y166170D01*
X59053Y166615D01*
X58547Y167047D01*
X58029Y167466D01*
X57502Y167873D01*
X56965Y168267D01*
X56418Y168647D01*
X55862Y169014D01*
X55298Y169367D01*
X54725Y169706D01*
X54143Y170032D01*
X53554Y170342D01*
X52958Y170639D01*
X52354Y170920D01*
X51744Y171187D01*
X51128Y171439D01*
X50505Y171676D01*
X49877Y171897D01*
X49244Y172103D01*
X49201Y171966D01*
X49831Y171761D01*
X50456Y171541D01*
X51076Y171306D01*
X51689Y171055D01*
X52296Y170790D01*
X52896Y170510D01*
X53489Y170215D01*
X54075Y169906D01*
X54653Y169582D01*
X55224Y169245D01*
X55785Y168893D01*
X56338Y168528D01*
X56882Y168150D01*
X57416Y167758D01*
X57941Y167354D01*
X58455Y166937D01*
X58959Y166507D01*
X59453Y166065D01*
X59935Y165611D01*
X60407Y165145D01*
X60867Y164668D01*
X61314Y164180D01*
X61750Y163681D01*
X62174Y163172D01*
X62585Y162652D01*
X62983Y162123D01*
X63368Y161584D01*
X63740Y161035D01*
X64098Y160478D01*
X64442Y159912D01*
X64773Y159338D01*
X65089Y158756D01*
X65391Y158166D01*
X65679Y157569D01*
X65951Y156965D01*
X66209Y156355D01*
X66452Y155739D01*
X66680Y155117D01*
X66892Y154489D01*
X67089Y153857D01*
X67271Y153220D01*
X67437Y152578D01*
X67587Y151933D01*
X67721Y151284D01*
X67840Y150632D01*
X67942Y149978D01*
X68028Y149321D01*
X68099Y148662D01*
X68153Y148002D01*
X68191Y147341D01*
X68212Y146678D01*
X68218Y146016D01*
X68207Y145354D01*
X68180Y144692D01*
X68137Y144031D01*
X68078Y143371D01*
X68002Y142713D01*
X67911Y142056D01*
X67803Y141403D01*
X67680Y140752D01*
X67541Y140104D01*
X67385Y139460D01*
X67215Y138820D01*
X67028Y138184D01*
X66826Y137553D01*
X66609Y136928D01*
X66376Y136307D01*
X66128Y135693D01*
X65866Y135085D01*
X65588Y134483D01*
X65296Y133889D01*
X64989Y133301D01*
X64669Y132722D01*
X64334Y132150D01*
X63985Y131587D01*
X63622Y131032D01*
X63246Y130487D01*
X62857Y129951D01*
X62455Y129424D01*
X62342Y129513D01*
X62743Y130037D01*
X63130Y130570D01*
X63504Y131112D01*
X63864Y131664D01*
X64211Y132224D01*
X64544Y132793D01*
X64864Y133369D01*
X65169Y133953D01*
X65459Y134545D01*
X65735Y135143D01*
X65997Y135748D01*
X66243Y136359D01*
X66474Y136976D01*
X66691Y137599D01*
X66891Y138227D01*
X67077Y138859D01*
X67247Y139496D01*
X67401Y140136D01*
X67540Y140780D01*
X67663Y141428D01*
X67770Y142078D01*
X67861Y142731D01*
X67936Y143385D01*
X67995Y144042D01*
X68037Y144699D01*
X68064Y145358D01*
X68075Y146017D01*
X68069Y146676D01*
X68048Y147334D01*
X68010Y147992D01*
X67956Y148649D01*
X67886Y149304D01*
X67800Y149958D01*
X67699Y150609D01*
X67581Y151257D01*
X67447Y151902D01*
X67298Y152544D01*
X67133Y153182D01*
X66952Y153816D01*
X66756Y154445D01*
X66545Y155069D01*
X66318Y155688D01*
X66077Y156301D01*
X65820Y156908D01*
X65549Y157509D01*
X65263Y158102D01*
X64963Y158689D01*
X64648Y159268D01*
X64319Y159839D01*
X63977Y160402D01*
X63620Y160956D01*
X63251Y161502D01*
X62868Y162038D01*
X62472Y162565D01*
X62063Y163082D01*
X61642Y163588D01*
X61208Y164085D01*
X60763Y164570D01*
X60305Y165045D01*
X59836Y165508D01*
X59356Y165959D01*
X58866Y166399D01*
X58364Y166826D01*
X57852Y167241D01*
X57330Y167644D01*
X56799Y168033D01*
X56258Y168410D01*
X55708Y168773D01*
X55149Y169123D01*
X54582Y169458D01*
X54007Y169780D01*
X53425Y170088D01*
X52834Y170381D01*
X52237Y170660D01*
X51633Y170924D01*
X51023Y171173D01*
X50407Y171407D01*
X49786Y171626D01*
X49159Y171830D01*
X49117Y171693D01*
X49740Y171490D01*
X50359Y171272D01*
X50971Y171040D01*
X51578Y170792D01*
X52179Y170529D01*
X52773Y170252D01*
X53360Y169960D01*
X53939Y169654D01*
X54511Y169334D01*
X55075Y169000D01*
X55631Y168653D01*
X56178Y168291D01*
X56716Y167917D01*
X57245Y167529D01*
X57764Y167129D01*
X58273Y166716D01*
X58772Y166291D01*
X59260Y165854D01*
X59737Y165405D01*
X60204Y164944D01*
X60658Y164472D01*
X61102Y163989D01*
X61533Y163495D01*
X61952Y162991D01*
X62359Y162477D01*
X62752Y161953D01*
X63133Y161420D01*
X63501Y160877D01*
X63855Y160326D01*
X64196Y159766D01*
X64523Y159198D01*
X64836Y158622D01*
X65135Y158039D01*
X65419Y157448D01*
X65689Y156851D01*
X65944Y156247D01*
X66185Y155637D01*
X66410Y155022D01*
X66620Y154401D01*
X66815Y153775D01*
X66995Y153145D01*
X67159Y152510D01*
X67308Y151872D01*
X67440Y151230D01*
X67558Y150585D01*
X67659Y149937D01*
X67744Y149287D01*
X67814Y148636D01*
X67867Y147982D01*
X67905Y147328D01*
X67926Y146673D01*
X67932Y146017D01*
X67921Y145362D01*
X67895Y144707D01*
X67852Y144053D01*
X67793Y143400D01*
X67719Y142749D01*
X67628Y142100D01*
X67522Y141453D01*
X67400Y140809D01*
X67262Y140168D01*
X67108Y139531D01*
X66939Y138898D01*
X66755Y138269D01*
X66555Y137644D01*
X66340Y137025D01*
X66110Y136412D01*
X65865Y135804D01*
X65605Y135202D01*
X65330Y134607D01*
X65041Y134018D01*
X64738Y133437D01*
X64420Y132864D01*
X64089Y132298D01*
X63744Y131741D01*
X63385Y131192D01*
X63013Y130653D01*
X62628Y130122D01*
X62230Y129602D01*
X62118Y129690D01*
X62514Y130208D01*
X62897Y130736D01*
X63267Y131272D01*
X63623Y131818D01*
X63967Y132372D01*
X64296Y132935D01*
X64612Y133505D01*
X64914Y134083D01*
X65201Y134668D01*
X65474Y135260D01*
X65733Y135859D01*
X65977Y136464D01*
X66205Y137074D01*
X66419Y137690D01*
X66618Y138311D01*
X66802Y138936D01*
X66970Y139566D01*
X67123Y140200D01*
X67260Y140838D01*
X67381Y141478D01*
X67487Y142121D01*
X67577Y142767D01*
X67651Y143415D01*
X67709Y144064D01*
X67752Y144715D01*
X67778Y145366D01*
X67789Y146018D01*
X67783Y146670D01*
X67762Y147322D01*
X67725Y147973D01*
X67671Y148622D01*
X67602Y149271D01*
X67517Y149917D01*
X67417Y150561D01*
X67300Y151203D01*
X67168Y151841D01*
X67020Y152476D01*
X66857Y153107D01*
X66678Y153734D01*
X66484Y154357D01*
X66275Y154974D01*
X66051Y155586D01*
X65812Y156193D01*
X65558Y156793D01*
X65290Y157388D01*
X65007Y157975D01*
X64710Y158555D01*
X64398Y159128D01*
X64073Y159693D01*
X63734Y160250D01*
X63382Y160799D01*
X63016Y161338D01*
X62637Y161869D01*
X62245Y162390D01*
X61841Y162901D01*
X61424Y163403D01*
X60995Y163894D01*
X60554Y164374D01*
X60102Y164843D01*
X59638Y165302D01*
X59163Y165748D01*
X58678Y166183D01*
X58182Y166606D01*
X57675Y167017D01*
X57159Y167415D01*
X56633Y167800D01*
X56098Y168173D01*
X55554Y168532D01*
X55001Y168878D01*
X54440Y169210D01*
X53871Y169528D01*
X53295Y169833D01*
X52711Y170123D01*
X52120Y170399D01*
X51523Y170660D01*
X50919Y170906D01*
X50310Y171138D01*
X49695Y171355D01*
X49075Y171556D01*
X49033Y171420D01*
X49649Y171219D01*
X50261Y171004D01*
X50867Y170773D01*
X51467Y170528D01*
X52062Y170268D01*
X52649Y169994D01*
X53230Y169705D01*
X53803Y169403D01*
X54369Y169086D01*
X54927Y168756D01*
X55477Y168412D01*
X56018Y168054D01*
X56550Y167684D01*
X57073Y167301D01*
X57587Y166905D01*
X58090Y166496D01*
X58584Y166075D01*
X59067Y165643D01*
X59539Y165198D01*
X60000Y164743D01*
X60450Y164276D01*
X60889Y163798D01*
X61315Y163310D01*
X61730Y162811D01*
X62132Y162302D01*
X62522Y161784D01*
X62899Y161256D01*
X63263Y160720D01*
X63613Y160174D01*
X63950Y159620D01*
X64274Y159058D01*
X64583Y158488D01*
X64879Y157911D01*
X65160Y157327D01*
X65427Y156736D01*
X65680Y156139D01*
X65918Y155536D01*
X66140Y154927D01*
X66348Y154312D01*
X66541Y153693D01*
X66719Y153070D01*
X66881Y152442D01*
X67028Y151810D01*
X67160Y151175D01*
X67276Y150537D01*
X67376Y149897D01*
X67460Y149254D01*
X67529Y148609D01*
X67582Y147963D01*
X67619Y147315D01*
X67640Y146667D01*
X67646Y146019D01*
X67635Y145370D01*
X67609Y144722D01*
X67567Y144075D01*
X67509Y143430D01*
X67435Y142785D01*
X67346Y142143D01*
X67240Y141503D01*
X67120Y140866D01*
X66983Y140232D01*
X66831Y139602D01*
X66664Y138975D01*
X66482Y138353D01*
X66284Y137735D01*
X66071Y137123D01*
X65843Y136516D01*
X65601Y135914D01*
X65344Y135319D01*
X65072Y134730D01*
X64786Y134148D01*
X64486Y133573D01*
X64172Y133006D01*
X63844Y132447D01*
X63503Y131895D01*
X63148Y131352D01*
X62780Y130819D01*
X62399Y130294D01*
X62006Y129779D01*
X61893Y129867D01*
X62285Y130380D01*
X62664Y130901D01*
X63030Y131433D01*
X63383Y131972D01*
X63722Y132521D01*
X64048Y133077D01*
X64360Y133641D01*
X64659Y134213D01*
X64943Y134792D01*
X65213Y135378D01*
X65469Y135970D01*
X65710Y136568D01*
X65937Y137172D01*
X66148Y137781D01*
X66345Y138395D01*
X66526Y139014D01*
X66693Y139637D01*
X66844Y140264D01*
X66979Y140895D01*
X67100Y141528D01*
X67204Y142165D01*
X67293Y142804D01*
X67367Y143444D01*
X67424Y144087D01*
X67466Y144730D01*
X67492Y145375D01*
X67503Y146019D01*
X67497Y146664D01*
X67476Y147309D01*
X67439Y147953D01*
X67387Y148596D01*
X67318Y149237D01*
X67234Y149876D01*
X67135Y150514D01*
X67019Y151148D01*
X66889Y151780D01*
X66742Y152408D01*
X66581Y153032D01*
X66404Y153652D01*
X66212Y154268D01*
X66006Y154879D01*
X65784Y155485D01*
X65547Y156085D01*
X65296Y156679D01*
X65031Y157267D01*
X64751Y157848D01*
X64457Y158422D01*
X64149Y158988D01*
X63827Y159547D01*
X63492Y160098D01*
X63143Y160641D01*
X62781Y161175D01*
X62407Y161699D01*
X62019Y162215D01*
X61619Y162721D01*
X61207Y163217D01*
X60782Y163703D01*
X60346Y164178D01*
X59899Y164642D01*
X59440Y165095D01*
X58970Y165537D01*
X58490Y165968D01*
X57999Y166386D01*
X57498Y166792D01*
X56987Y167186D01*
X56467Y167567D01*
X55938Y167936D01*
X55400Y168291D01*
X54853Y168633D01*
X54298Y168962D01*
X53735Y169277D01*
X53165Y169578D01*
X52587Y169865D01*
X52003Y170138D01*
X51412Y170396D01*
X50815Y170640D01*
X50212Y170869D01*
X49604Y171084D01*
X48991Y171283D01*
X48948Y171146D01*
X49558Y170948D01*
X50163Y170735D01*
X50763Y170507D01*
X51357Y170264D01*
X51944Y170007D01*
X52526Y169736D01*
X53100Y169450D01*
X53667Y169151D01*
X54227Y168838D01*
X54779Y168511D01*
X55323Y168171D01*
X55858Y167817D01*
X56384Y167451D01*
X56902Y167072D01*
X57410Y166680D01*
X57908Y166276D01*
X58396Y165860D01*
X58874Y165432D01*
X59341Y164992D01*
X59797Y164541D01*
X60242Y164080D01*
X60676Y163607D01*
X61098Y163124D01*
X61508Y162631D01*
X61906Y162128D01*
X62291Y161615D01*
X62664Y161093D01*
X63024Y160562D01*
X63371Y160022D01*
X63704Y159474D01*
X64024Y158918D01*
X64330Y158355D01*
X64623Y157784D01*
X64901Y157206D01*
X65165Y156622D01*
X65415Y156031D01*
X65650Y155434D01*
X65871Y154832D01*
X66076Y154224D01*
X66267Y153612D01*
X66443Y152995D01*
X66604Y152374D01*
X66749Y151749D01*
X66879Y151121D01*
X66994Y150490D01*
X67093Y149856D01*
X67176Y149220D01*
X67244Y148582D01*
X67297Y147943D01*
X67333Y147303D01*
X67354Y146662D01*
X67360Y146020D01*
X67349Y145379D01*
X67323Y144738D01*
X67282Y144098D01*
X67224Y143459D01*
X67151Y142822D01*
X67063Y142186D01*
X66959Y141553D01*
X66839Y140923D01*
X66704Y140296D01*
X66554Y139673D01*
X66389Y139053D01*
X66208Y138437D01*
X66013Y137826D01*
X65802Y137221D01*
X65577Y136620D01*
X65337Y136025D01*
X65083Y135436D01*
X64814Y134854D01*
X64532Y134278D01*
X64235Y133709D01*
X63924Y133148D01*
X63600Y132595D01*
X63262Y132049D01*
X62911Y131513D01*
X62547Y130984D01*
X62170Y130465D01*
X61781Y129956D01*
X61669Y130044D01*
X62056Y130551D01*
X62431Y131067D01*
X62793Y131593D01*
X63142Y132127D01*
X63477Y132669D01*
X63800Y133219D01*
X64109Y133777D01*
X64404Y134343D01*
X64685Y134915D01*
X64953Y135495D01*
X65205Y136080D01*
X65444Y136672D01*
X65668Y137269D01*
X65877Y137872D01*
X66072Y138480D01*
X66251Y139092D01*
X66416Y139708D01*
X66565Y140328D01*
X66699Y140952D01*
X66818Y141579D01*
X66922Y142208D01*
X67010Y142840D01*
X67082Y143474D01*
X67139Y144109D01*
X67181Y144746D01*
X67207Y145383D01*
X67217Y146021D01*
X67211Y146659D01*
X67191Y147296D01*
X67154Y147933D01*
X67102Y148569D01*
X67034Y149203D01*
X66951Y149836D01*
X66853Y150466D01*
X66739Y151094D01*
X66609Y151718D01*
X66465Y152340D01*
X66305Y152957D01*
X66130Y153571D01*
X65940Y154180D01*
X65736Y154784D01*
X65517Y155383D01*
X65283Y155977D01*
X65034Y156564D01*
X64772Y157146D01*
X64495Y157720D01*
X64204Y158288D01*
X63899Y158849D01*
X63581Y159401D01*
X63250Y159946D01*
X62905Y160483D01*
X62547Y161011D01*
X62176Y161530D01*
X61793Y162040D01*
X61397Y162541D01*
X60989Y163031D01*
X60570Y163511D01*
X60138Y163982D01*
X59696Y164441D01*
X59242Y164889D01*
X58777Y165326D01*
X58302Y165752D01*
X57817Y166166D01*
X57321Y166568D01*
X56816Y166957D01*
X56302Y167334D01*
X55778Y167699D01*
X55246Y168050D01*
X54705Y168389D01*
X54156Y168714D01*
X53599Y169025D01*
X53035Y169323D01*
X52464Y169607D01*
X51886Y169877D01*
X51301Y170132D01*
X50711Y170374D01*
X50115Y170600D01*
X49513Y170813D01*
X48906Y171010D01*
X33006Y172239D02*
X33410Y170928D01*
X32805Y170732D01*
X32205Y170520D01*
X31611Y170294D01*
X31022Y170054D01*
X30440Y169799D01*
X29864Y169530D01*
X29294Y169247D01*
X28732Y168950D01*
X28177Y168640D01*
X27630Y168316D01*
X27091Y167979D01*
X26560Y167628D01*
X26039Y167265D01*
X25526Y166889D01*
X25022Y166501D01*
X24528Y166100D01*
X24045Y165688D01*
X23571Y165263D01*
X23108Y164828D01*
X22656Y164381D01*
X22214Y163923D01*
X21784Y163454D01*
X21366Y162976D01*
X20960Y162487D01*
X20565Y161988D01*
X20183Y161480D01*
X19814Y160962D01*
X19457Y160436D01*
X19113Y159901D01*
X18783Y159358D01*
X18466Y158807D01*
X18162Y158248D01*
X17872Y157682D01*
X17596Y157109D01*
X17334Y156530D01*
X17087Y155944D01*
X16854Y155353D01*
X16635Y154755D01*
X16431Y154153D01*
X16242Y153546D01*
X16068Y152935D01*
X15909Y152319D01*
X15765Y151700D01*
X15636Y151077D01*
X15522Y150451D01*
X15424Y149823D01*
X15341Y149193D01*
X15274Y148561D01*
X15222Y147927D01*
X15185Y147292D01*
X15165Y146657D01*
X15159Y146021D01*
X15169Y145385D01*
X15195Y144750D01*
X15237Y144115D01*
X15293Y143482D01*
X15366Y142850D01*
X15454Y142221D01*
X15557Y141593D01*
X15675Y140968D01*
X15809Y140347D01*
X15958Y139729D01*
X16122Y139114D01*
X16301Y138504D01*
X16495Y137899D01*
X16703Y137298D01*
X16926Y136703D01*
X17164Y136113D01*
X17416Y135529D01*
X17683Y134952D01*
X17963Y134381D01*
X18257Y133817D01*
X18565Y133261D01*
X18886Y132712D01*
X19221Y132172D01*
X19569Y131640D01*
X19930Y131116D01*
X20303Y130602D01*
X20689Y130096D01*
X19612Y129247D01*
X19205Y129779D01*
X18812Y130321D01*
X18432Y130872D01*
X18066Y131432D01*
X17713Y132001D01*
X17375Y132579D01*
X17050Y133165D01*
X16740Y133758D01*
X16445Y134359D01*
X16165Y134967D01*
X15899Y135582D01*
X15649Y136203D01*
X15414Y136829D01*
X15194Y137462D01*
X14990Y138100D01*
X14801Y138742D01*
X14629Y139389D01*
X14472Y140040D01*
X14331Y140694D01*
X14206Y141352D01*
X14097Y142013D01*
X14005Y142676D01*
X13929Y143341D01*
X13869Y144008D01*
X13825Y144676D01*
X13798Y145345D01*
X13787Y146014D01*
X13793Y146684D01*
X13815Y147353D01*
X13853Y148021D01*
X13908Y148689D01*
X13979Y149354D01*
X14066Y150018D01*
X14169Y150680D01*
X14289Y151338D01*
X14425Y151994D01*
X14576Y152646D01*
X14744Y153294D01*
X14927Y153938D01*
X15126Y154577D01*
X15341Y155211D01*
X15571Y155840D01*
X15817Y156463D01*
X16078Y157080D01*
X16353Y157690D01*
X16644Y158293D01*
X16949Y158889D01*
X17269Y159477D01*
X17603Y160057D01*
X17951Y160629D01*
X18313Y161193D01*
X18688Y161747D01*
X19077Y162292D01*
X19480Y162827D01*
X19895Y163352D01*
X20323Y163867D01*
X20763Y164371D01*
X21216Y164864D01*
X21681Y165346D01*
X22157Y165817D01*
X22645Y166276D01*
X23143Y166722D01*
X23653Y167157D01*
X24173Y167578D01*
X24703Y167987D01*
X25243Y168383D01*
X25793Y168765D01*
X26351Y169134D01*
X26919Y169489D01*
X27495Y169830D01*
X28079Y170157D01*
X28672Y170470D01*
X29271Y170768D01*
X29878Y171051D01*
X30491Y171319D01*
X31111Y171572D01*
X31737Y171810D01*
X32368Y172033D01*
X33005Y172240D01*
X33047Y172103D01*
X32414Y171897D01*
X31786Y171676D01*
X31163Y171439D01*
X30547Y171187D01*
X29936Y170920D01*
X29333Y170639D01*
X28736Y170342D01*
X28147Y170031D01*
X27566Y169706D01*
X26993Y169367D01*
X26429Y169014D01*
X25873Y168647D01*
X25326Y168266D01*
X24789Y167873D01*
X24262Y167466D01*
X23744Y167046D01*
X23237Y166614D01*
X22741Y166170D01*
X22256Y165714D01*
X21782Y165246D01*
X21320Y164766D01*
X20870Y164275D01*
X20432Y163774D01*
X20006Y163262D01*
X19593Y162739D01*
X19193Y162207D01*
X18806Y161665D01*
X18432Y161114D01*
X18072Y160553D01*
X17726Y159985D01*
X17393Y159407D01*
X17075Y158822D01*
X16772Y158229D01*
X16483Y157629D01*
X16209Y157022D01*
X15949Y156409D01*
X15705Y155789D01*
X15476Y155164D01*
X15262Y154533D01*
X15064Y153897D01*
X14882Y153257D01*
X14715Y152612D01*
X14564Y151963D01*
X14429Y151311D01*
X14310Y150656D01*
X14207Y149998D01*
X14121Y149337D01*
X14050Y148675D01*
X13996Y148011D01*
X13958Y147347D01*
X13936Y146681D01*
X13930Y146015D01*
X13941Y145349D01*
X13968Y144684D01*
X14011Y144019D01*
X14071Y143356D01*
X14147Y142694D01*
X14239Y142034D01*
X14347Y141377D01*
X14471Y140723D01*
X14611Y140072D01*
X14767Y139424D01*
X14939Y138781D01*
X15126Y138142D01*
X15330Y137507D01*
X15548Y136878D01*
X15782Y136255D01*
X16031Y135637D01*
X16295Y135026D01*
X16574Y134421D01*
X16868Y133823D01*
X17176Y133233D01*
X17499Y132650D01*
X17835Y132076D01*
X18186Y131509D01*
X18551Y130952D01*
X18929Y130404D01*
X19320Y129865D01*
X19724Y129336D01*
X19837Y129424D01*
X19434Y129950D01*
X19045Y130487D01*
X18669Y131032D01*
X18307Y131586D01*
X17958Y132150D01*
X17623Y132721D01*
X17302Y133301D01*
X16995Y133888D01*
X16703Y134483D01*
X16426Y135084D01*
X16163Y135692D01*
X15915Y136307D01*
X15682Y136927D01*
X15465Y137553D01*
X15263Y138184D01*
X15077Y138820D01*
X14906Y139460D01*
X14750Y140104D01*
X14611Y140751D01*
X14488Y141402D01*
X14380Y142056D01*
X14289Y142712D01*
X14213Y143370D01*
X14154Y144030D01*
X14111Y144691D01*
X14084Y145353D01*
X14073Y146016D01*
X14079Y146678D01*
X14100Y147340D01*
X14138Y148002D01*
X14192Y148662D01*
X14263Y149321D01*
X14349Y149977D01*
X14451Y150632D01*
X14570Y151284D01*
X14704Y151933D01*
X14854Y152578D01*
X15020Y153219D01*
X15201Y153856D01*
X15398Y154489D01*
X15611Y155116D01*
X15839Y155739D01*
X16082Y156355D01*
X16340Y156965D01*
X16612Y157569D01*
X16900Y158166D01*
X17202Y158755D01*
X17518Y159337D01*
X17849Y159912D01*
X18193Y160478D01*
X18551Y161035D01*
X18923Y161583D01*
X19308Y162122D01*
X19706Y162652D01*
X20117Y163172D01*
X20540Y163681D01*
X20976Y164180D01*
X21424Y164668D01*
X21884Y165145D01*
X22355Y165611D01*
X22838Y166065D01*
X23331Y166507D01*
X23835Y166936D01*
X24350Y167354D01*
X24875Y167758D01*
X25409Y168150D01*
X25953Y168528D01*
X26506Y168893D01*
X27067Y169245D01*
X27637Y169582D01*
X28215Y169906D01*
X28801Y170215D01*
X29395Y170510D01*
X29995Y170790D01*
X30602Y171055D01*
X31215Y171306D01*
X31834Y171541D01*
X32459Y171761D01*
X33089Y171966D01*
X33132Y171830D01*
X32505Y171626D01*
X31883Y171407D01*
X31267Y171173D01*
X30657Y170923D01*
X30054Y170659D01*
X29456Y170381D01*
X28866Y170087D01*
X28283Y169780D01*
X27708Y169458D01*
X27141Y169122D01*
X26583Y168773D01*
X26033Y168410D01*
X25492Y168033D01*
X24960Y167644D01*
X24439Y167241D01*
X23927Y166826D01*
X23425Y166399D01*
X22934Y165959D01*
X22454Y165508D01*
X21986Y165044D01*
X21528Y164570D01*
X21083Y164084D01*
X20649Y163588D01*
X20228Y163081D01*
X19819Y162564D01*
X19423Y162038D01*
X19040Y161501D01*
X18670Y160956D01*
X18314Y160402D01*
X17972Y159839D01*
X17643Y159268D01*
X17328Y158689D01*
X17028Y158102D01*
X16742Y157508D01*
X16471Y156908D01*
X16214Y156301D01*
X15972Y155688D01*
X15746Y155069D01*
X15534Y154445D01*
X15338Y153816D01*
X15158Y153182D01*
X14993Y152544D01*
X14844Y151902D01*
X14710Y151257D01*
X14592Y150608D01*
X14491Y149957D01*
X14405Y149304D01*
X14335Y148649D01*
X14281Y147992D01*
X14243Y147334D01*
X14222Y146675D01*
X14216Y146016D01*
X14227Y145357D01*
X14254Y144699D01*
X14297Y144041D01*
X14355Y143385D01*
X14430Y142730D01*
X14521Y142078D01*
X14628Y141427D01*
X14751Y140780D01*
X14890Y140136D01*
X15044Y139495D01*
X15214Y138858D01*
X15400Y138226D01*
X15601Y137598D01*
X15817Y136976D01*
X16048Y136359D01*
X16295Y135748D01*
X16556Y135143D01*
X16832Y134544D01*
X17123Y133953D01*
X17428Y133369D01*
X17747Y132792D01*
X18080Y132224D01*
X18427Y131664D01*
X18788Y131112D01*
X19162Y130569D01*
X19549Y130036D01*
X19949Y129513D01*
X20061Y129601D01*
X19663Y130122D01*
X19278Y130652D01*
X18906Y131192D01*
X18547Y131741D01*
X18202Y132298D01*
X17871Y132863D01*
X17553Y133437D01*
X17250Y134018D01*
X16961Y134606D01*
X16686Y135201D01*
X16427Y135803D01*
X16181Y136411D01*
X15951Y137025D01*
X15736Y137644D01*
X15536Y138268D01*
X15352Y138897D01*
X15183Y139530D01*
X15029Y140168D01*
X14891Y140809D01*
X14769Y141453D01*
X14663Y142099D01*
X14572Y142749D01*
X14498Y143400D01*
X14439Y144053D01*
X14396Y144707D01*
X14370Y145362D01*
X14359Y146017D01*
X14365Y146672D01*
X14386Y147328D01*
X14424Y147982D01*
X14477Y148635D01*
X14547Y149287D01*
X14632Y149937D01*
X14733Y150584D01*
X14850Y151229D01*
X14983Y151871D01*
X15132Y152510D01*
X15296Y153144D01*
X15476Y153775D01*
X15670Y154400D01*
X15881Y155021D01*
X16106Y155637D01*
X16346Y156247D01*
X16602Y156850D01*
X16871Y157448D01*
X17156Y158038D01*
X17455Y158622D01*
X17768Y159198D01*
X18095Y159766D01*
X18435Y160326D01*
X18790Y160877D01*
X19157Y161420D01*
X19538Y161953D01*
X19932Y162477D01*
X20339Y162991D01*
X20758Y163495D01*
X21189Y163989D01*
X21632Y164472D01*
X22087Y164944D01*
X22553Y165404D01*
X23031Y165854D01*
X23519Y166291D01*
X24018Y166716D01*
X24527Y167129D01*
X25046Y167529D01*
X25575Y167917D01*
X26113Y168291D01*
X26660Y168652D01*
X27215Y169000D01*
X27779Y169334D01*
X28351Y169654D01*
X28931Y169960D01*
X29518Y170252D01*
X30112Y170529D01*
X30713Y170792D01*
X31319Y171039D01*
X31932Y171272D01*
X32550Y171490D01*
X33174Y171693D01*
X33216Y171556D01*
X32596Y171355D01*
X31981Y171138D01*
X31372Y170906D01*
X30768Y170660D01*
X30171Y170399D01*
X29580Y170123D01*
X28996Y169833D01*
X28419Y169528D01*
X27851Y169210D01*
X27290Y168878D01*
X26737Y168532D01*
X26193Y168173D01*
X25658Y167800D01*
X25132Y167415D01*
X24616Y167017D01*
X24109Y166606D01*
X23613Y166183D01*
X23127Y165748D01*
X22653Y165301D01*
X22189Y164843D01*
X21736Y164374D01*
X21296Y163893D01*
X20867Y163402D01*
X20450Y162901D01*
X20045Y162390D01*
X19654Y161868D01*
X19275Y161338D01*
X18909Y160798D01*
X18557Y160250D01*
X18218Y159693D01*
X17892Y159128D01*
X17581Y158555D01*
X17284Y157975D01*
X17001Y157387D01*
X16733Y156793D01*
X16479Y156193D01*
X16240Y155586D01*
X16016Y154974D01*
X15806Y154356D01*
X15613Y153734D01*
X15434Y153107D01*
X15271Y152476D01*
X15123Y151841D01*
X14991Y151202D01*
X14874Y150561D01*
X14774Y149917D01*
X14689Y149270D01*
X14620Y148622D01*
X14566Y147972D01*
X14529Y147321D01*
X14508Y146670D01*
X14502Y146018D01*
X14513Y145366D01*
X14539Y144714D01*
X14582Y144064D01*
X14640Y143414D01*
X14714Y142767D01*
X14804Y142121D01*
X14910Y141478D01*
X15031Y140837D01*
X15169Y140200D01*
X15321Y139566D01*
X15489Y138936D01*
X15673Y138310D01*
X15872Y137689D01*
X16086Y137074D01*
X16315Y136463D01*
X16558Y135858D01*
X16817Y135260D01*
X17090Y134668D01*
X17377Y134083D01*
X17679Y133505D01*
X17995Y132934D01*
X18325Y132372D01*
X18668Y131818D01*
X19025Y131272D01*
X19395Y130735D01*
X19778Y130208D01*
X20174Y129690D01*
X20286Y129778D01*
X19892Y130293D01*
X19511Y130818D01*
X19143Y131352D01*
X18788Y131895D01*
X18447Y132446D01*
X18119Y133006D01*
X17805Y133573D01*
X17505Y134148D01*
X17219Y134730D01*
X16947Y135319D01*
X16690Y135914D01*
X16448Y136515D01*
X16220Y137122D01*
X16007Y137735D01*
X15810Y138353D01*
X15627Y138975D01*
X15460Y139601D01*
X15308Y140232D01*
X15172Y140866D01*
X15051Y141503D01*
X14946Y142143D01*
X14856Y142785D01*
X14782Y143429D01*
X14724Y144075D01*
X14682Y144722D01*
X14656Y145370D01*
X14645Y146018D01*
X14651Y146667D01*
X14672Y147315D01*
X14709Y147962D01*
X14762Y148609D01*
X14831Y149253D01*
X14915Y149896D01*
X15015Y150537D01*
X15131Y151175D01*
X15263Y151810D01*
X15410Y152442D01*
X15572Y153069D01*
X15750Y153693D01*
X15942Y154312D01*
X16150Y154926D01*
X16373Y155535D01*
X16611Y156139D01*
X16864Y156736D01*
X17131Y157327D01*
X17412Y157911D01*
X17707Y158488D01*
X18017Y159058D01*
X18341Y159620D01*
X18678Y160174D01*
X19028Y160719D01*
X19392Y161256D01*
X19769Y161784D01*
X20159Y162302D01*
X20561Y162811D01*
X20975Y163309D01*
X21402Y163798D01*
X21840Y164276D01*
X22290Y164742D01*
X22752Y165198D01*
X23224Y165643D01*
X23707Y166075D01*
X24200Y166496D01*
X24704Y166904D01*
X25218Y167300D01*
X25741Y167684D01*
X26273Y168054D01*
X26814Y168411D01*
X27364Y168755D01*
X27922Y169086D01*
X28487Y169402D01*
X29061Y169705D01*
X29642Y169994D01*
X30229Y170268D01*
X30823Y170528D01*
X31424Y170773D01*
X32030Y171004D01*
X32641Y171219D01*
X33258Y171420D01*
X33300Y171283D01*
X32687Y171084D01*
X32079Y170869D01*
X31476Y170640D01*
X30879Y170396D01*
X30288Y170138D01*
X29703Y169865D01*
X29126Y169578D01*
X28555Y169277D01*
X27993Y168962D01*
X27438Y168633D01*
X26891Y168291D01*
X26353Y167936D01*
X25823Y167567D01*
X25303Y167186D01*
X24793Y166792D01*
X24292Y166386D01*
X23801Y165967D01*
X23321Y165537D01*
X22851Y165095D01*
X22392Y164642D01*
X21944Y164177D01*
X21508Y163702D01*
X21084Y163217D01*
X20672Y162721D01*
X20272Y162215D01*
X19884Y161699D01*
X19509Y161174D01*
X19148Y160640D01*
X18799Y160098D01*
X18464Y159547D01*
X18142Y158988D01*
X17834Y158421D01*
X17540Y157847D01*
X17260Y157266D01*
X16995Y156678D01*
X16743Y156084D01*
X16507Y155484D01*
X16285Y154879D01*
X16078Y154268D01*
X15887Y153652D01*
X15710Y153032D01*
X15548Y152407D01*
X15402Y151779D01*
X15272Y151148D01*
X15156Y150513D01*
X15057Y149876D01*
X14973Y149237D01*
X14904Y148595D01*
X14852Y147952D01*
X14815Y147309D01*
X14794Y146664D01*
X14788Y146019D01*
X14799Y145374D01*
X14825Y144730D01*
X14867Y144086D01*
X14924Y143444D01*
X14998Y142803D01*
X15087Y142164D01*
X15192Y141528D01*
X15312Y140894D01*
X15447Y140264D01*
X15598Y139637D01*
X15765Y139014D01*
X15946Y138395D01*
X16143Y137781D01*
X16354Y137171D01*
X16581Y136567D01*
X16822Y135969D01*
X17078Y135377D01*
X17348Y134791D01*
X17632Y134213D01*
X17931Y133641D01*
X18243Y133077D01*
X18569Y132520D01*
X18909Y131972D01*
X19262Y131432D01*
X19628Y130901D01*
X20007Y130379D01*
X20398Y129867D01*
X20510Y129955D01*
X20121Y130465D01*
X19744Y130984D01*
X19380Y131512D01*
X19029Y132049D01*
X18691Y132594D01*
X18367Y133148D01*
X18057Y133709D01*
X17760Y134278D01*
X17477Y134853D01*
X17208Y135436D01*
X16954Y136025D01*
X16714Y136619D01*
X16489Y137220D01*
X16278Y137826D01*
X16083Y138437D01*
X15902Y139052D01*
X15737Y139672D01*
X15587Y140296D01*
X15452Y140923D01*
X15332Y141553D01*
X15228Y142186D01*
X15140Y142821D01*
X15067Y143459D01*
X15009Y144097D01*
X14968Y144737D01*
X14942Y145378D01*
X14931Y146020D01*
X14937Y146661D01*
X14958Y147302D01*
X14994Y147943D01*
X15047Y148582D01*
X15115Y149220D01*
X15198Y149856D01*
X15297Y150489D01*
X15412Y151121D01*
X15542Y151749D01*
X15687Y152373D01*
X15848Y152994D01*
X16024Y153611D01*
X16214Y154224D01*
X16420Y154831D01*
X16641Y155434D01*
X16876Y156030D01*
X17126Y156621D01*
X17390Y157206D01*
X17668Y157784D01*
X17960Y158355D01*
X18267Y158918D01*
X18587Y159474D01*
X18920Y160022D01*
X19267Y160562D01*
X19627Y161093D01*
X19999Y161615D01*
X20385Y162127D01*
X20783Y162630D01*
X21193Y163124D01*
X21615Y163607D01*
X22048Y164079D01*
X22494Y164541D01*
X22950Y164992D01*
X23417Y165432D01*
X23895Y165860D01*
X24383Y166276D01*
X24881Y166680D01*
X25389Y167071D01*
X25906Y167451D01*
X26433Y167817D01*
X26968Y168171D01*
X27512Y168511D01*
X28064Y168838D01*
X28623Y169151D01*
X29191Y169450D01*
X29765Y169736D01*
X30346Y170007D01*
X30934Y170264D01*
X31528Y170507D01*
X32127Y170735D01*
X32732Y170948D01*
X33342Y171146D01*
X33384Y171010D01*
X32778Y170812D01*
X32176Y170600D01*
X31580Y170374D01*
X30989Y170132D01*
X30405Y169877D01*
X29827Y169607D01*
X29256Y169323D01*
X28692Y169025D01*
X28135Y168714D01*
X27586Y168389D01*
X27045Y168050D01*
X26513Y167699D01*
X25989Y167334D01*
X25475Y166957D01*
X24970Y166567D01*
X24474Y166166D01*
X23989Y165752D01*
X23514Y165326D01*
X23049Y164889D01*
X22595Y164441D01*
X22152Y163981D01*
X21721Y163511D01*
X21302Y163031D01*
X20894Y162540D01*
X20498Y162040D01*
X20115Y161530D01*
X19744Y161011D01*
X19386Y160483D01*
X19041Y159946D01*
X18710Y159401D01*
X18391Y158848D01*
X18087Y158288D01*
X17796Y157720D01*
X17519Y157145D01*
X17257Y156564D01*
X17008Y155976D01*
X16774Y155383D01*
X16555Y154784D01*
X16350Y154179D01*
X16161Y153570D01*
X15986Y152957D01*
X15826Y152339D01*
X15682Y151718D01*
X15552Y151093D01*
X15438Y150466D01*
X15340Y149835D01*
X15257Y149203D01*
X15189Y148569D01*
X15137Y147933D01*
X15100Y147296D01*
X15080Y146658D01*
X15074Y146020D01*
X15084Y145383D01*
X15110Y144745D01*
X15152Y144109D01*
X15209Y143473D01*
X15281Y142839D01*
X15370Y142208D01*
X15473Y141578D01*
X15592Y140951D01*
X15726Y140328D01*
X15875Y139708D01*
X16040Y139091D01*
X16220Y138479D01*
X16414Y137872D01*
X16623Y137269D01*
X16847Y136672D01*
X17086Y136080D01*
X17339Y135494D01*
X17606Y134915D01*
X17887Y134342D01*
X18182Y133777D01*
X18491Y133219D01*
X18814Y132668D01*
X19150Y132126D01*
X19499Y131592D01*
X19861Y131067D01*
X20235Y130551D01*
X20623Y130044D01*
D11*
X20198Y129612D02*
X62098Y129612D01*
X63688Y143582D02*
X67698Y143582D01*
X18608Y143582D02*
X14598Y143582D01*
M02*
