G04 EAGLE Gerber RS-274X export*
G75*
%MOMM*%
%FSLAX34Y34*%
%LPD*%
%INSolderpaste Top*%
%IPPOS*%
%AMOC8*
5,1,8,0,0,1.08239X$1,22.5*%
G01*
G04 Define Apertures*
%ADD10R,0.900000X0.700000*%
%ADD11R,0.700000X0.900000*%
%ADD12R,0.300000X0.375000*%
%ADD13R,0.250000X0.350000*%
%ADD14R,0.350000X0.250000*%
%ADD15R,0.762000X0.762000*%
%ADD16R,1.016000X0.635000*%
%ADD17R,0.635000X1.016000*%
%ADD18R,1.143000X0.635000*%
%ADD19R,0.440000X0.200000*%
%ADD20R,0.200000X0.440000*%
%ADD21R,0.760000X0.760000*%
%ADD22C,0.400000*%
%ADD23R,3.800000X1.500000*%
%ADD24R,0.750000X1.350000*%
D10*
X275082Y134978D03*
X275082Y147978D03*
D11*
X299824Y18796D03*
X312824Y18796D03*
D10*
X267142Y32408D03*
X267142Y19408D03*
X242062Y32154D03*
X242062Y19154D03*
X228158Y32154D03*
X228158Y19154D03*
X121158Y88034D03*
X121158Y75034D03*
X171958Y88034D03*
X171958Y75034D03*
D11*
X139804Y87884D03*
X152804Y87884D03*
D10*
X88900Y88288D03*
X88900Y75288D03*
X57912Y88188D03*
X57912Y75188D03*
D11*
X66746Y54356D03*
X79746Y54356D03*
D10*
X294066Y134978D03*
X294066Y147978D03*
D11*
X83208Y115316D03*
X70208Y115316D03*
D10*
X118110Y115166D03*
X118110Y128166D03*
X154940Y51412D03*
X154940Y64412D03*
X136906Y51666D03*
X136906Y64666D03*
X518414Y86256D03*
X518414Y73256D03*
D11*
X517756Y107696D03*
X530756Y107696D03*
X557380Y107696D03*
X570380Y107696D03*
D10*
X312928Y135232D03*
X312928Y148232D03*
D11*
X193444Y118364D03*
X180444Y118364D03*
D10*
X224376Y141074D03*
X224376Y154074D03*
X303022Y48410D03*
X303022Y35410D03*
D11*
X246230Y46482D03*
X259230Y46482D03*
D10*
X194056Y32916D03*
X194056Y19916D03*
X179832Y32408D03*
X179832Y19408D03*
D12*
X479980Y107696D03*
X474980Y104826D03*
X474980Y110566D03*
X469980Y110566D03*
X469980Y104826D03*
D13*
G36*
X202516Y97294D02*
X204284Y99062D01*
X206758Y96588D01*
X204990Y94820D01*
X202516Y97294D01*
G37*
G36*
X198626Y93404D02*
X200394Y95172D01*
X202868Y92698D01*
X201100Y90930D01*
X198626Y93404D01*
G37*
G36*
X182196Y66976D02*
X183964Y68744D01*
X186438Y66270D01*
X184670Y64502D01*
X182196Y66976D01*
G37*
G36*
X178306Y63086D02*
X180074Y64854D01*
X182548Y62380D01*
X180780Y60612D01*
X178306Y63086D01*
G37*
X107398Y88138D03*
X101898Y88138D03*
X75902Y88138D03*
X70402Y88138D03*
X157436Y107188D03*
X151936Y107188D03*
X500082Y107696D03*
X494582Y107696D03*
D14*
X570230Y89872D03*
X570230Y84372D03*
D10*
X299212Y108100D03*
X299212Y95100D03*
X318516Y35410D03*
X318516Y48410D03*
X313800Y108122D03*
X313800Y95122D03*
D11*
X30584Y119888D03*
X43584Y119888D03*
D10*
X468790Y149618D03*
X468790Y162618D03*
X238760Y140820D03*
X238760Y153820D03*
D15*
X360732Y78538D03*
X360732Y143458D03*
X425652Y143458D03*
X425652Y78538D03*
D16*
X426922Y104648D03*
X426922Y130048D03*
X359462Y130048D03*
X359462Y117348D03*
X359462Y104648D03*
X359462Y91948D03*
D17*
X399542Y77268D03*
X412242Y77268D03*
X374142Y77268D03*
X374142Y144728D03*
X386842Y144728D03*
X399542Y144728D03*
X412242Y144728D03*
X386847Y77268D03*
D16*
X426922Y117343D03*
D18*
X426287Y91953D03*
D19*
X32414Y88726D03*
X32414Y93726D03*
X32414Y98726D03*
X13814Y98726D03*
X13814Y93726D03*
X13814Y88726D03*
D20*
X28114Y103026D03*
X23114Y103026D03*
X18114Y103026D03*
X18114Y84426D03*
X23114Y84426D03*
X28114Y84426D03*
D21*
X23114Y93726D03*
D22*
X225662Y106570D03*
X232162Y106570D03*
X238662Y106570D03*
X245162Y106570D03*
X251662Y106570D03*
X258162Y106570D03*
X264662Y106570D03*
X271162Y106570D03*
X225662Y100070D03*
X232162Y100070D03*
X238662Y100070D03*
X245162Y100070D03*
X251662Y100070D03*
X258162Y100070D03*
X264662Y100070D03*
X271162Y100070D03*
X225662Y93570D03*
X232162Y93570D03*
X238662Y93570D03*
X245162Y93570D03*
X251662Y93570D03*
X258162Y93570D03*
X264662Y93570D03*
X271162Y93570D03*
X225662Y87070D03*
X232162Y87070D03*
X238662Y87070D03*
X245162Y87070D03*
X251662Y87070D03*
X258162Y87070D03*
X264662Y87070D03*
X271162Y87070D03*
X225662Y80570D03*
X232162Y80570D03*
X238662Y80570D03*
X245162Y80570D03*
X251662Y80570D03*
X258162Y80570D03*
X264662Y80570D03*
X271162Y80570D03*
X225662Y74070D03*
X232162Y74070D03*
X238662Y74070D03*
X245162Y74070D03*
X251662Y74070D03*
X258162Y74070D03*
X264662Y74070D03*
X271162Y74070D03*
X225662Y67570D03*
X232162Y67570D03*
X238662Y67570D03*
X245162Y67570D03*
X251662Y67570D03*
X258162Y67570D03*
X264662Y67570D03*
X271162Y67570D03*
X225662Y61070D03*
X232162Y61070D03*
X238662Y61070D03*
X245162Y61070D03*
X251662Y61070D03*
X258162Y61070D03*
X264662Y61070D03*
X271162Y61070D03*
D23*
X613664Y138284D03*
X613664Y88284D03*
D24*
X598414Y108034D03*
D10*
X350012Y33330D03*
X350012Y20330D03*
X365760Y33424D03*
X365760Y20424D03*
M02*
