M48
;GenerationSoftware,Autodesk,EAGLE,9.7.0*%
;CreationDate,2020-11-23T22:45:40Z*%
FMAT,2
ICI,OFF
METRIC,TZ,000.000
T1C0.350
%
G90
M71
T1
X9836Y2111
X46914Y8998
X48514Y8998
X50051Y9322
X52032Y2311
X53518Y9081
X55397Y9081
X58293Y9081
X62344Y2311
X62344Y17996
X58242Y12421
X56617Y12421
X54991Y12421
X50051Y12116
X48514Y12579
X46914Y12579
X44945Y17996
X33630Y17996
X29972Y16091
X21082Y17996
X46215Y2311
X14884Y2111
X14944Y17996
X8729Y17996
X2515Y17996
X9830Y13106
X13665Y13106
X16358Y12001
X10071Y10147
X9369Y4839
X3962Y6960
X3962Y5376
X4788Y3793
X4788Y2111
X27381Y4572
X33274Y2045
X21082Y14364
X45098Y12579
X45098Y8998
X39103Y5245
X18694Y9868
X20599Y8636
X21057Y1567
X25933Y13894
X29337Y6325
X17913Y4585
X14834Y12001
X16129Y9868
X12649Y10147
X11360Y10147
X8782Y10147
X7493Y10147
X10439Y7569
X9369Y6109
X12141Y6109
X12141Y4839
X14605Y7595
X8077Y13106
X3048Y13132
X16764Y6375
M30